<?xml version="1.0" standalone="no"?>
<!DOCTYPE svg PUBLIC "-//W3C//DTD SVG 1.1//EN" "http://www.w3.org/Graphics/SVG/1.1/DTD/svg11.dtd" >
<svg>
<metadata>
Created by FontForge 20090914 at Thu Feb 23 20:27:13 2012
 By root
ATROX font created by ATROX.  &#194;&#169;MCMXCVI MDM/Garfunkel Factory.
</metadata>
<defs>
<font id="ATROX-normal" horiz-adv-x="461" >
  <font-face 
    font-family="ATROX"
    font-weight="400"
    font-stretch="normal"
    units-per-em="1000"
    panose-1="0 0 0 0 0 0 0 0 0 0"
    ascent="800"
    descent="-200"
    x-height="574"
    cap-height="574"
    bbox="-47 -242 4222 800"
    underline-thickness="20"
    underline-position="-123"
    unicode-range="U+0020-U+2122"
  />
<missing-glyph horiz-adv-x="800" 
d="M50 0v800h700v-800h-700zM700 50v700h-600v-700h600z" />
    <glyph glyph-name=".notdef" horiz-adv-x="800" 
d="M50 0v800h700v-800h-700zM700 50v700h-600v-700h600z" />
    <glyph glyph-name=".null" horiz-adv-x="0" 
 />
    <glyph glyph-name="nonmarkingreturn" horiz-adv-x="279" 
 />
    <glyph glyph-name="space" unicode=" " horiz-adv-x="279" 
 />
    <glyph glyph-name="exclam" unicode="!" horiz-adv-x="359" 
d="M146 162l-48 238v174h166v-174l-49 -238h-69zM94 114h166v-114h-166v114z" />
    <glyph glyph-name="quotedbl" unicode="&#x22;" horiz-adv-x="439" 
d="M94 356l-26 219h120l-26 -219h-68zM277 356l-25 219h119l-25 -219h-69z" />
    <glyph glyph-name="numbersign" unicode="#" horiz-adv-x="600" 
d="M223 574h88l-30 -169h86l29 169h90l-29 -169h90v-77h-104l-11 -72h88v-74h-102l-31 -182h-90l31 182h-86l-31 -182h-88l31 182h-99v74h113l14 72h-100v77h111zM268 328l-12 -72h86l12 72h-86z" />
    <glyph glyph-name="dollar" unicode="$" 
d="M281 108v117l-144 9l-114 82v173l114 85h47v59h86v-59h48l110 -85v-100h-147v77h-103v-117l144 -10l116 -83v-173l-116 -83h-52v-61h-86v61h-47l-114 83v100h155v-75h103z" />
    <glyph glyph-name="percent" unicode="%" horiz-adv-x="900" 
d="M299 0l232 574h71l-227 -574h-76zM715 284h-51v-210h51v210zM555 302l70 56h127l72 -56v-248l-70 -54h-129l-70 54v248zM236 500h-50v-210h50v210zM76 518l70 56h129l71 -56v-248l-71 -54h-129l-70 54v248z" />
    <glyph glyph-name="ampersand" unicode="&#x26;" horiz-adv-x="641" 
d="M299 247h-45v-139h70l39 53zM318 466h-64v-122h64v122zM104 490l99 84h166l98 -84v-100l-71 -64l43 -52l24 34h142l-91 -128l142 -180h-174l-50 67l-47 -67h-188l-103 83v150l95 53l-85 58v146z" />
    <glyph glyph-name="quotesingle" unicode="'" horiz-adv-x="221" 
d="M98 464h-69v111h160v-88l-89 -110l-55 31z" />
    <glyph glyph-name="parenleft" unicode="(" horiz-adv-x="340" 
d="M166 528v-482h123v-66h-107l-131 97v420l131 98h107v-67h-123z" />
    <glyph glyph-name="parenright" unicode=")" horiz-adv-x="340" 
d="M176 528h-125v67h107l131 -98v-420l-131 -97h-107v66h125v482z" />
    <glyph glyph-name="asterisk" unicode="*" horiz-adv-x="480" 
d="M174 494l-76 60l37 32l78 -61v88h55v-88l78 61l37 -32l-76 -60h109v-45h-109l76 -63l-37 -30l-78 61v-87h-55v87l-78 -61l-37 31l76 62h-110v45h110z" />
    <glyph glyph-name="plus" unicode="+" horiz-adv-x="600" 
d="M357 333h196v-92h-196v-159h-115v159h-193v92h193v153h115v-153z" />
    <glyph glyph-name="comma" unicode="," horiz-adv-x="240" 
d="M109 0h-72v111h164v-89l-88 -109l-56 29z" />
    <glyph glyph-name="hyphen" unicode="-" horiz-adv-x="180" 
d="M2 331h178v-77h-178v77z" />
    <glyph glyph-name="period" unicode="." horiz-adv-x="240" 
d="M37 111h164v-111h-164v111z" />
    <glyph glyph-name="slash" unicode="/" horiz-adv-x="600" 
d="M436 574l101 -43l-373 -531l-100 44z" />
    <glyph glyph-name="zero" unicode="0" 
d="M195 466v-358h71v358h-71zM139 574h179l112 -84v-407l-104 -83h-187l-110 83v407z" />
    <glyph glyph-name="one" unicode="1" 
d="M150 464h-66v80l137 30h95v-574h-166v464z" />
    <glyph glyph-name="two" unicode="2" 
d="M266 466h-73v-77h-154v101l104 84h175l110 -84v-156l-235 -175v-51h235v-108h-395v200l233 178v88z" />
    <glyph glyph-name="three" unicode="3" 
d="M254 466h-70v-72h-157v96l104 84h172l115 -84v-137l-96 -63l96 -60v-147l-109 -83h-178l-104 83v103h157v-78h70v128h-90v108h90v122z" />
    <glyph glyph-name="four" unicode="4" 
d="M234 394l-113 -180h113v180zM234 114h-189l-49 104l244 356h151v-360h68v-100h-68v-114h-157v114z" />
    <glyph glyph-name="five" unicode="5" 
d="M264 247l-110 2l-115 82v243h344v-108h-186v-105l125 -3l106 -80v-195l-106 -83h-181l-108 83v111h166v-86h65v139z" />
    <glyph glyph-name="six" unicode="6" 
d="M268 233h-73v-125h73v125zM268 466h-73v-125h129l104 -75v-183l-108 -83h-177l-110 83v407l108 84h177l110 -84v-100h-160v76z" />
    <glyph glyph-name="seven" unicode="7" 
d="M270 466h-84v-55h-143v163h377v-108l-201 -466h-172z" />
    <glyph glyph-name="eight" unicode="8" 
d="M266 466h-71v-122h71v122zM266 236h-71v-128h71v128zM338 295l90 -59v-153l-106 -83h-179l-112 83v153l88 59l-72 56v139l98 84h158l111 -84v-139z" />
    <glyph glyph-name="nine" unicode="9" 
d="M260 466h-71v-130h71v130zM260 228h-131l-100 74v188l104 84h183l108 -84v-407l-108 -83h-179l-108 83v101h160v-76h71v120z" />
    <glyph glyph-name="colon" unicode=":" horiz-adv-x="240" 
d="M37 402h166v-110h-166v110zM37 111h166v-111h-166v111z" />
    <glyph glyph-name="semicolon" unicode=";" horiz-adv-x="240" 
d="M37 402h166v-112h-166v112zM109 0h-72v111h166v-89l-90 -109l-56 29z" />
    <glyph glyph-name="less" unicode="&#x3c;" horiz-adv-x="600" 
d="M193 286l364 -130v-89l-510 182v79l510 182v-90z" />
    <glyph glyph-name="equal" unicode="=" horiz-adv-x="600" 
d="M47 411h506v-93h-506v93zM47 254h506v-92h-506v92z" />
    <glyph glyph-name="greater" unicode="&#x3e;" horiz-adv-x="600" 
d="M408 287l-361 133v90l508 -182v-79l-508 -180v87z" />
    <glyph glyph-name="question" unicode="?" horiz-adv-x="500" 
d="M168 111h166v-111h-166v111zM277 466h-58v-105h-158v129l107 84h160l113 -84v-143l-107 -83v-102h-166v116l109 84v104z" />
    <glyph glyph-name="at" unicode="@" horiz-adv-x="740" 
d="M377 353q-37 0 -62.5 -25t-25.5 -56q0 -28 16.5 -47.5t51.5 -19.5q26 0 48 11.5t34 31t12 39.5q0 26 -18 46q-20 20 -56 20zM486 426h88l-49 -232q0 -15 14 -17q35 3 57.5 27.5t32.5 55.5t10 58q0 52 -22 92q-26 50 -89 79t-143 29q-60 0 -110.5 -17.5t-89.5 -49
t-60 -75.5q-23 -43 -23 -89q0 -24 4.5 -42t16.5 -43q17 -39 55 -76q28 -24 87.5 -48t121.5 -24q52 0 99.5 16.5t93.5 47.5h84q-50 -55 -117 -86.5t-162 -31.5q-69 0 -133 20.5t-112 60.5q-25 20 -43 42t-33 51q-27 54 -27 118q0 57 29 113q14 25 33 48.5t43 41.5
q49 40 110 60t127 20q68 0 130 -20t104.5 -52t67.5 -75q23 -43 23 -86l-1 -17q-5 -50 -35 -95.5t-82 -75.5q-26 -15 -55 -24.5t-58 -9.5q-51 0 -51 39q-18 -17 -43 -26.5t-55 -9.5q-20 0 -39.5 5.5t-37.5 15.5q-34 18 -52 49q-10 18 -14.5 32t-4.5 34q6 45 29 84.5t63 62.5
q38 25 95 25q77 0 114 -44z" />
    <glyph glyph-name="A" unicode="A" horiz-adv-x="420" 
d="M199 451l-25 -237h72l-31 237h-16zM258 106h-96l-14 -106h-162l102 575h240l106 -575h-163z" />
    <glyph glyph-name="B" unicode="B" horiz-adv-x="480" 
d="M273 466h-66v-122h66v122zM273 236h-66v-128h66v128zM348 294l91 -56v-155l-109 -83h-289v574h289l96 -72v-152z" />
    <glyph glyph-name="C" unicode="C" 
d="M271 466h-72v-358h72v138h161v-163l-110 -83h-170l-117 83v407l108 84h179l110 -84v-137h-161v113z" />
    <glyph glyph-name="D" unicode="D" horiz-adv-x="480" 
d="M277 466h-68v-358h68v358zM45 574h285l113 -84v-407l-107 -83h-291v574z" />
    <glyph glyph-name="E" unicode="E" horiz-adv-x="359" 
d="M39 575h305v-109h-139v-108h115v-108h-115v-142h143v-108h-309v575z" />
    <glyph glyph-name="F" unicode="F" horiz-adv-x="359" 
d="M39 574h320v-108h-156v-108h127v-108h-127v-250h-164v574z" />
    <glyph glyph-name="G" unicode="G" 
d="M268 466h-77v-358h77v82h-41v110h207v-217l-110 -83h-181l-116 84v406l110 84h185l112 -84v-131h-166v107z" />
    <glyph glyph-name="H" unicode="H" horiz-adv-x="480" 
d="M275 341v233h164v-574h-164v233h-68v-233h-166v574h166v-233h68z" />
    <glyph glyph-name="I" unicode="I" horiz-adv-x="260" 
d="M47 574h166v-574h-166v574z" />
    <glyph glyph-name="J" unicode="J" horiz-adv-x="400" 
d="M203 108v466h166v-491l-111 -83h-151l-111 83v145h150v-120h57z" />
    <glyph glyph-name="K" unicode="K" horiz-adv-x="500" 
d="M207 246v-246h-166v574h166v-246l109 246h170l-142 -268l164 -306h-178z" />
    <glyph glyph-name="L" unicode="L" horiz-adv-x="359" 
d="M43 574h166v-466h148v-108h-314v574z" />
    <glyph glyph-name="M" unicode="M" horiz-adv-x="600" 
d="M311 297l52 277h196v-574h-151v364h-8l-68 -364h-62l-69 364h-8v-364h-150v574h193l59 -277h16z" />
    <glyph glyph-name="N" unicode="N" horiz-adv-x="480" 
d="M195 280v-280h-156v574h139l109 -276v276h154v-574h-136z" />
    <glyph glyph-name="O" unicode="O" horiz-adv-x="480" 
d="M207 466v-358h68v358h-68zM150 574h178l111 -84v-407l-105 -83h-184l-109 83v407z" />
    <glyph glyph-name="P" unicode="P" horiz-adv-x="439" 
d="M273 466h-60v-163h60v163zM213 195v-195h-164v574h271l112 -84v-213l-112 -82h-107z" />
    <glyph glyph-name="Q" unicode="Q" horiz-adv-x="480" 
d="M277 466h-74v-358h74v358zM441 62v-62h-295l-109 83v407l109 84h186l109 -84v-370l-78 -58h78z" />
    <glyph glyph-name="R" unicode="R" horiz-adv-x="480" 
d="M279 466h-68v-128h68v128zM279 230h-68v-230h-166v574h283l111 -84v-149l-82 -57l82 -54v-230h-160v230z" />
    <glyph glyph-name="S" unicode="S" 
d="M266 466h-69v-117l119 -8l114 -83v-175l-108 -83h-183l-108 83v101h166v-76h69v120l-120 8l-115 82v172l110 84h173l112 -84v-101h-160v77z" />
    <glyph glyph-name="T" unicode="T" horiz-adv-x="359" 
d="M4 574h351v-108h-93v-466h-164v466h-94v108z" />
    <glyph glyph-name="U" unicode="U" horiz-adv-x="480" 
d="M275 108v466h166v-491l-107 -83h-186l-109 83v491h166v-466h70z" />
    <glyph glyph-name="V" unicode="V" horiz-adv-x="420" 
d="M207 138h12l41 436h164l-84 -574h-250l-94 574h164z" />
    <glyph glyph-name="W" unicode="W" horiz-adv-x="539" 
d="M277 246h-15l-35 -246h-120l-121 574h157l50 -288l43 288h69l41 -288l52 288h157l-123 -574h-119z" />
    <glyph glyph-name="X" unicode="X" horiz-adv-x="439" 
d="M219 167l-63 -167h-166l135 300l-131 274h170l55 -163l54 163h168l-125 -274l137 -300h-168z" />
    <glyph glyph-name="Y" unicode="Y" horiz-adv-x="439" 
d="M281 574h164l-142 -333v-241h-166v241l-143 333h166l61 -207z" />
    <glyph glyph-name="Z" unicode="Z" horiz-adv-x="400" 
d="M223 466h-174v108h265l102 -100l-236 -366h193v-108h-295l-92 100z" />
    <glyph glyph-name="bracketleft" unicode="[" horiz-adv-x="340" 
d="M51 594h236v-61h-123v-491h123v-62h-236v614z" />
    <glyph glyph-name="backslash" unicode="\" horiz-adv-x="600" 
d="M64 531l100 43l373 -530l-101 -44z" />
    <glyph glyph-name="bracketright" unicode="]" horiz-adv-x="340" 
d="M174 533h-121v61h236v-614h-236v62h121v491z" />
    <glyph glyph-name="asciicircum" unicode="^" horiz-adv-x="600" 
d="M301 458l-137 -224l-103 38l179 302h119l182 -302l-105 -38z" />
    <glyph glyph-name="underscore" unicode="_" horiz-adv-x="1020" 
d="M0 -77h998h23v-76h-998h-23v76z" />
    <glyph glyph-name="grave" unicode="`" horiz-adv-x="381" 
d="M271 605l-179 64l-20 36l39 51l49 -3l145 -107z" />
    <glyph glyph-name="a" unicode="a" horiz-adv-x="469" 
d="M199 451l-25 -237h72l-31 237h-16zM258 106h-96l-14 -106h-162l102 575h240l106 -575h-163z" />
    <glyph glyph-name="b" unicode="b" 
d="M273 466h-66v-122h66v122zM273 236h-66v-128h66v128zM348 294l91 -56v-155l-109 -83h-289v574h289l96 -72v-152z" />
    <glyph glyph-name="c" unicode="c" horiz-adv-x="453" 
d="M271 466h-72v-358h72v138h161v-163l-110 -83h-170l-117 83v407l108 84h179l110 -84v-137h-161v113z" />
    <glyph glyph-name="d" unicode="d" horiz-adv-x="465" 
d="M277 466h-68v-358h68v358zM45 574h285l113 -84v-407l-107 -83h-291v574z" />
    <glyph glyph-name="e" unicode="e" horiz-adv-x="363" 
d="M39 575h305v-109h-139v-108h115v-108h-115v-142h143v-108h-309v575z" />
    <glyph glyph-name="f" unicode="f" horiz-adv-x="377" 
d="M39 574h320v-108h-156v-108h127v-108h-127v-250h-164v574z" />
    <glyph glyph-name="g" unicode="g" horiz-adv-x="455" 
d="M268 466h-77v-358h77v82h-41v110h207v-217l-110 -83h-181l-116 84v406l110 84h185l112 -84v-131h-166v107z" />
    <glyph glyph-name="h" unicode="h" 
d="M275 341v233h164v-574h-164v233h-68v-233h-166v574h166v-233h68z" />
    <glyph glyph-name="i" unicode="i" horiz-adv-x="223" 
d="M47 574h166v-574h-166v574z" />
    <glyph glyph-name="j" unicode="j" horiz-adv-x="391" 
d="M203 108v466h166v-491l-111 -83h-151l-111 83v145h150v-120h57z" />
    <glyph glyph-name="k" unicode="k" horiz-adv-x="533" 
d="M207 246v-246h-166v574h166v-246l109 246h170l-142 -268l164 -306h-178z" />
    <glyph glyph-name="l" unicode="l" horiz-adv-x="375" 
d="M43 574h166v-466h148v-108h-314v574z" />
    <glyph glyph-name="m" unicode="m" horiz-adv-x="586" 
d="M311 297l52 277h196v-574h-151v364h-8l-68 -364h-62l-69 364h-8v-364h-150v574h193l59 -277h16z" />
    <glyph glyph-name="n" unicode="n" horiz-adv-x="463" 
d="M195 280v-280h-156v574h139l109 -276v276h154v-574h-136z" />
    <glyph glyph-name="o" unicode="o" 
d="M207 466v-358h68v358h-68zM150 574h178l111 -84v-407l-105 -83h-184l-109 83v407z" />
    <glyph glyph-name="p" unicode="p" horiz-adv-x="453" 
d="M273 466h-60v-163h60v163zM213 195v-195h-164v574h271l112 -84v-213l-112 -82h-107z" />
    <glyph glyph-name="q" unicode="q" horiz-adv-x="463" 
d="M277 466h-74v-358h74v358zM441 62v-62h-295l-109 83v407l109 84h186l109 -84v-370l-78 -58h78z" />
    <glyph glyph-name="r" unicode="r" 
d="M279 466h-68v-128h68v128zM279 230h-68v-230h-166v574h283l111 -84v-149l-82 -57l82 -54v-230h-160v230z" />
    <glyph glyph-name="s" unicode="s" horiz-adv-x="451" 
d="M266 466h-69v-117l119 -8l114 -83v-175l-108 -83h-183l-108 83v101h166v-76h69v120l-120 8l-115 82v172l110 84h173l112 -84v-101h-160v77z" />
    <glyph glyph-name="t" unicode="t" horiz-adv-x="373" 
d="M4 574h351v-108h-93v-466h-164v466h-94v108z" />
    <glyph glyph-name="u" unicode="u" horiz-adv-x="463" 
d="M275 108v466h166v-491l-107 -83h-186l-109 83v491h166v-466h70z" />
    <glyph glyph-name="v" unicode="v" horiz-adv-x="447" 
d="M207 138h12l41 436h164l-84 -574h-250l-94 574h164z" />
    <glyph glyph-name="w" unicode="w" horiz-adv-x="596" 
d="M277 246h-15l-35 -246h-120l-121 574h157l50 -288l43 288h69l41 -288l52 288h157l-123 -574h-119z" />
    <glyph glyph-name="x" unicode="x" horiz-adv-x="484" 
d="M219 167l-63 -167h-166l135 300l-131 274h170l55 -163l54 163h168l-125 -274l137 -300h-168z" />
    <glyph glyph-name="y" unicode="y" horiz-adv-x="473" 
d="M281 574h164l-142 -333v-241h-166v241l-143 333h166l61 -207z" />
    <glyph glyph-name="z" unicode="z" horiz-adv-x="451" 
d="M223 466h-174v108h265l102 -100l-236 -366h193v-108h-295l-92 100z" />
    <glyph glyph-name="braceleft" unicode="{" horiz-adv-x="340" 
d="M137 286q49 -9 65.5 -32.5t16.5 -67.5v-130q0 -33 17.5 -50t54.5 -26h-33q-59 0 -97 18t-38 72v146q0 24 -8.5 36.5t-21 19.5t-26.5 10l-20 4q43 6 59 25q17 17 17 48v152q0 83 135 83h35l-22 -7q-15 -4 -23 -9.5t-12 -9.5t-8 -12q-9 -14 -9 -36v-142q0 -37 -15.5 -61.5
t-66.5 -30.5z" />
    <glyph glyph-name="bar" unicode="|" horiz-adv-x="600" 
d="M240 574h119v-574h-119v574z" />
    <glyph glyph-name="braceright" unicode="}" horiz-adv-x="340" 
d="M203 286q-82 12 -82 81v150q0 35 -19 53q-19 16 -55 24h37q133 0 133 -84v-157q0 -55 76 -67q-33 -6 -55 -20q-21 -17 -21 -50v-142q0 -54 -35 -74.5t-104 -20.5l-31 1q74 13 74 76v142q0 44 22.5 63t59.5 25z" />
    <glyph glyph-name="asciitilde" unicode="~" horiz-adv-x="600" 
d="M47 264q67 98 142 98q38 0 62 -8q19 -4 44 -12.5t38 -12.5q57 -19 75 -19q23 0 37 11t43 48l65 -58q-65 -94 -143 -94q-33 0 -55 7l-80 26q-58 20 -76 20q-26 0 -43 -14q-11 -9 -21 -21t-22 -32z" />
    <glyph glyph-name="c128" horiz-adv-x="725" 
d="M353 -147v24q-1 15 -1.5 25.5t-0.5 13.5v13l-4 146q0 9 -2 14l-2 32q1 8 0 21l-2 25q-1 6 -1 12v10v4l-1 16q0 7 -3 10q-1 13 -1 26q-2 9 -3 14v10l-2 5v11l-2 13l1 8l-22 220l-4 26l-2 24l-3 7l1 4q-2 5 -2 6t-1 3l-2 7l1 4l-1 2l-1 5l-3 3q-3 5 -2 8l-4 5l-1 5
q-4 5 -4 8q-4 4 -7 9q1 3 0 5q-1 0 -1 1q-4 3 -6 4l-1 5l-2 2l-3 5l-2 4l3 1l-3 4l3 2l-3 3l2 2l1 4v7l1 23q-2 7 3 11l11 18l1 3h3l1 4h-1l5 2v4h6q1 6 3 6l2 1q9 15 26 18l9 4l13 4h36q4 -2 12.5 -5.5t13.5 -8.5l6 -2l4 -3l6 -4l12 -15q8 -10 10 -16l2 -6l1 -4l3 -7l1 -4
q-2 -3 -1 -4l1 -3l-1 -4v-2l1 -5l1 -3l-1 -2v-4l3 -1q-1 -2 1 -8v-5v-5l-3 3v-7l-1 -4l-3 -6l-2 -1v-3l-2 2l-3 -4q1 -2 0 -4t-2 -3l-4 -4l-2 -3h-1q-2 -3 -2.5 -5l-1.5 -6l-3 -4q1 -1 -3 -7q1 -1 -1 -6l-1 -4q-2 -4 -1 -5l-2 -5v-6l-1 -3l-2 -7l-18 -188l-10 -100v-5
q-1 -4 -1 -8v-5l-3 -15l1 -1q-1 -11 -3 -13v-11v-4l-1 -9q-2 -6 -3 -11v-23l-4 -33l-2 -19l1 -4q-2 -8 -2 -11q1 -9 1 -14q0 -16 -2 -24v-19q-3 -23 -4 -48t-1 -59l-3 -72l-3 -57v-33q-3 20 -3 40v13zM271 -30l-9 6l-9 6l-45 37l-5 8l-12 14q-11 12 -21.5 25.5t-19.5 28.5
l-24 33l-5 9l-5 10l-4 7l-11 20l-4 7l-8 15l-2 5q-2 6 -4 7l-2 6l-3 6l-2 5q-2 8 -4 9l-2 12q-4 6 -4 8l-6 14q-3 6 -3 11l-1 6l-3 5q-3 7 -3 10l-2 19l-3 13l-3 16v10l-2 10q-1 7 -2 8l-1 4l-1 28v9q-2 6 -2 8l-1 6v6v14v20v10v5v6l1 8q1 7 2 15l1 8q1 5 3 8v7l2 8
q1 5 2 11l1 3l2 4v4v4l1 4l2 6v5l3 7l2 4q2 5 2 9l3 9l4 9l2 2v1l2 7l2 9l12 14l1 1q5 11 10 17q9 10 13 14q6 3 12 11l2 2q5 6 13.5 9t10.5 3l5 -3l2 -3l7 -6q3 -1 5 -5t13 -17l2 -3l6 -8l4 -4l1 -4l3 -4q2 -2 3 -4.5t1 -5.5l3 -1q4 -7 5 -11l1 -4v-4q3 -4 3 -6q4 -5 4 -10
l3 -9l1 -8q0 -5 2 -8q1 -5 1 -7v-4l3 -4l-2 -4l3 -3v-4v-5l2 -14q0 -9 -2 -14l-3 -2l-9 -12q0 -2 -3 -2l-3 -5l-4 -4q-5 -7 -7 -12q-6 -13 -11 -20l-3 -5q0 -3 -3 -6t-3 -5l-4 -9q-3 -6 -3 -9l-4 -6l-1 -8l-2 -3l-2 -8q-2 -4 -3.5 -8t-2.5 -9l-1 -12q0 -5 -1 -9l-3 -8
q-1 -11 -1 -17v-47v-7l1 -5v-14q2 -4 2 -11l2 -15l1 -12v-6q3 -10 5 -15l1 -11l1 -9l6 -22q2 -8 4 -9l1 -10l14 -41q2 -7 8 -16.5t8.5 -15t8.5 -16.5t7 -14l14 -19q13 -21 24 -36l23 -32q-5 2 -6 4zM457 -24l6 8q9 11 12 16.5t7 11.5q12 19 13 21l4 2l27 49l3 7q1 2 5.5 7.5
t6.5 8.5q1 9 8 21q4 10 4 19q3 8 6 17l1 10q0 4 1 5.5t2 2.5l2 9q1 3 1 6.5t1 4.5l3 11l3 15l2 18l3 27l1 9l2 16v6v4v22v11l-2 17l-1 10l-2 10l-1 6l-1 8l-3 13l-3 5l-3 11l-5 10q-2 4 -3 9l-1 6q-2 1 -4 8l-4 6q0 4 -3 9t-3 7l-1 1l-2 1q-8 11 -10 16l-3 5v1q-1 1 -6 8
t-7 7v1l-3 4l-2 2l-2 3l-4 5q-1 4 -2 6l2 9l-2 4q1 4 1 5h1v7v8q1 7 3 11q1 4 0 7l2 7l3 9q-2 3 0 4.5t4 7.5t3 6l-2 4q1 1 3 2h1v3l2 5l1 3l3 6q6 11 8 16v2h1v2l5 3l3 8l-1 -3l3 2l1 4q1 -1 2 -1l2 6v-2l2 2l16 25l14 8h4h4q4 -3 8 -5l4 -3l1 -3l3 -2l10 -9l2 -4h2l2 -4
q4 -6 9 -11l1 -1l1 -2l6 -6q1 -3 6.5 -8.5t6.5 -10.5l2 -3q3 -5 4 -7l-3 1l3 -3l1 -3v-4l3 -1l1 -3q2 -6 5 -11l3 -10q1 -5 3 -9v-6v-1l2 -4v-3q0 -9 3 -12l3 -6v-5l2 -9l1 -4q1 -6 1 -8l1 -8v-2q1 -4 3 -8v-6v-5l2 -4l1 -9v-9v-11v-4v-7v-4v-7v-4v-14l-1 -16q-1 -3 -2 -4
v-11q-1 -1 -1 -7t-2 -10v-11l-1 -7l-1 -15l-1 -12l-2 -7l-1 -10l-2 -9l-3 -9v-6v-1l-2 -6l-3 -9q-3 -5 -3 -11l-3 -11q-3 -5 -3 -8l-3 -9l-3 -7l-5 -13l-7 -17l-7 -12l-8 -18l-9 -18l-9 -16q-5 -10 -8 -12l-6 -10l-23 -36l-6 -6l-26 -34l-15 -16q-9 -10 -21 -21t-18 -17
q-11 -8 -16 -11l-13 -10l-8 -5zM529 -187h6l11 32v-32h10v40h-15l-9 -24l-10 24h-13v-40h8v32zM482 -187h10v32h12v8h-35v-8h13v-32z" />
    <glyph glyph-name="c129" horiz-adv-x="725" 
d="M353 -147v24q-1 15 -1.5 25.5t-0.5 13.5v13l-4 146q0 9 -2 14l-2 32q1 8 0 21l-2 25q-1 6 -1 12v10v4l-1 16q0 7 -3 10q-1 13 -1 26q-2 9 -3 14v10l-2 5v11l-2 13l1 8l-22 220l-4 26l-2 24l-3 7l1 4q-2 5 -2 6t-1 3l-2 7l1 4l-1 2l-1 5l-3 3q-3 5 -2 8l-4 5l-1 5
q-4 5 -4 8q-4 4 -7 9q1 3 0 5q-1 0 -1 1q-4 3 -6 4l-1 5l-2 2l-3 5l-2 4l3 1l-3 4l3 2l-3 3l2 2l1 4v7l1 23q-2 7 3 11l11 18l1 3h3l1 4h-1l5 2v4h6q1 6 3 6l2 1q9 15 26 18l9 4l13 4h36q4 -2 12.5 -5.5t13.5 -8.5l6 -2l4 -3l6 -4l12 -15q8 -10 10 -16l2 -6l1 -4l3 -7l1 -4
q-2 -3 -1 -4l1 -3l-1 -4v-2l1 -5l1 -3l-1 -2v-4l3 -1q-1 -2 1 -8v-5v-5l-3 3v-7l-1 -4l-3 -6l-2 -1v-3l-2 2l-3 -4q1 -2 0 -4t-2 -3l-4 -4l-2 -3h-1q-2 -3 -2.5 -5l-1.5 -6l-3 -4q1 -1 -3 -7q1 -1 -1 -6l-1 -4q-2 -4 -1 -5l-2 -5v-6l-1 -3l-2 -7l-18 -188l-10 -100v-5
q-1 -4 -1 -8v-5l-3 -15l1 -1q-1 -11 -3 -13v-11v-4l-1 -9q-2 -6 -3 -11v-23l-4 -33l-2 -19l1 -4q-2 -8 -2 -11q1 -9 1 -14q0 -16 -2 -24v-19q-3 -23 -4 -48t-1 -59l-3 -72l-3 -57v-33q-3 20 -3 40v13zM271 -30l-9 6l-9 6l-45 37l-5 8l-12 14q-11 12 -21.5 25.5t-19.5 28.5
l-24 33l-5 9l-5 10l-4 7l-11 20l-4 7l-8 15l-2 5q-2 6 -4 7l-2 6l-3 6l-2 5q-2 8 -4 9l-2 12q-4 6 -4 8l-6 14q-3 6 -3 11l-1 6l-3 5q-3 7 -3 10l-2 19l-3 13l-3 16v10l-2 10q-1 7 -2 8l-1 4l-1 28v9q-2 6 -2 8l-1 6v6v14v20v10v5v6l1 8q1 7 2 15l1 8q1 5 3 8v7l2 8
q1 5 2 11l1 3l2 4v4v4l1 4l2 6v5l3 7l2 4q2 5 2 9l3 9l4 9l2 2v1l2 7l2 9l12 14l1 1q5 11 10 17q9 10 13 14q6 3 12 11l2 2q5 6 13.5 9t10.5 3l5 -3l2 -3l7 -6q3 -1 5 -5t13 -17l2 -3l6 -8l4 -4l1 -4l3 -4q2 -2 3 -4.5t1 -5.5l3 -1q4 -7 5 -11l1 -4v-4q3 -4 3 -6q4 -5 4 -10
l3 -9l1 -8q0 -5 2 -8q1 -5 1 -7v-4l3 -4l-2 -4l3 -3v-4v-5l2 -14q0 -9 -2 -14l-3 -2l-9 -12q0 -2 -3 -2l-3 -5l-4 -4q-5 -7 -7 -12q-6 -13 -11 -20l-3 -5q0 -3 -3 -6t-3 -5l-4 -9q-3 -6 -3 -9l-4 -6l-1 -8l-2 -3l-2 -8q-2 -4 -3.5 -8t-2.5 -9l-1 -12q0 -5 -1 -9l-3 -8
q-1 -11 -1 -17v-47v-7l1 -5v-14q2 -4 2 -11l2 -15l1 -12v-6q3 -10 5 -15l1 -11l1 -9l6 -22q2 -8 4 -9l1 -10l14 -41q2 -7 8 -16.5t8.5 -15t8.5 -16.5t7 -14l14 -19q13 -21 24 -36l23 -32q-5 2 -6 4zM457 -24l6 8q9 11 12 16.5t7 11.5q12 19 13 21l4 2l27 49l3 7q1 2 5.5 7.5
t6.5 8.5q1 9 8 21q4 10 4 19q3 8 6 17l1 10q0 4 1 5.5t2 2.5l2 9q1 3 1 6.5t1 4.5l3 11l3 15l2 18l3 27l1 9l2 16v6v4v22v11l-2 17l-1 10l-2 10l-1 6l-1 8l-3 13l-3 5l-3 11l-5 10q-2 4 -3 9l-1 6q-2 1 -4 8l-4 6q0 4 -3 9t-3 7l-1 1l-2 1q-8 11 -10 16l-3 5v1q-1 1 -6 8
t-7 7v1l-3 4l-2 2l-2 3l-4 5q-1 4 -2 6l2 9l-2 4q1 4 1 5h1v7v8q1 7 3 11q1 4 0 7l2 7l3 9q-2 3 0 4.5t4 7.5t3 6l-2 4q1 1 3 2h1v3l2 5l1 3l3 6q6 11 8 16v2h1v2l5 3l3 8l-1 -3l3 2l1 4q1 -1 2 -1l2 6v-2l2 2l16 25l14 8h4h4q4 -3 8 -5l4 -3l1 -3l3 -2l10 -9l2 -4h2l2 -4
q4 -6 9 -11l1 -1l1 -2l6 -6q1 -3 6.5 -8.5t6.5 -10.5l2 -3q3 -5 4 -7l-3 1l3 -3l1 -3v-4l3 -1l1 -3q2 -6 5 -11l3 -10q1 -5 3 -9v-6v-1l2 -4v-3q0 -9 3 -12l3 -6v-5l2 -9l1 -4q1 -6 1 -8l1 -8v-2q1 -4 3 -8v-6v-5l2 -4l1 -9v-9v-11v-4v-7v-4v-7v-4v-14l-1 -16q-1 -3 -2 -4
v-11q-1 -1 -1 -7t-2 -10v-11l-1 -7l-1 -15l-1 -12l-2 -7l-1 -10l-2 -9l-3 -9v-6v-1l-2 -6l-3 -9q-3 -5 -3 -11l-3 -11q-3 -5 -3 -8l-3 -9l-3 -7l-5 -13l-7 -17l-7 -12l-8 -18l-9 -18l-9 -16q-5 -10 -8 -12l-6 -10l-23 -36l-6 -6l-26 -34l-15 -16q-9 -10 -21 -21t-18 -17
q-11 -8 -16 -11l-13 -10l-8 -5zM529 -187h6l11 32v-32h10v40h-15l-9 -24l-10 24h-13v-40h8v32zM482 -187h10v32h12v8h-35v-8h13v-32z" />
    <glyph glyph-name="quotesinglbase" unicode="&#x201a;" horiz-adv-x="1354" 
d="M754 -192l11 22v-22h6v27h-10l-6 -16l-5 16h-10v-27h6v22zM723 -192h6v22h8v5h-23v-5h9v-22zM636 -115q0 25 -2.5 70t-2.5 56q0 33 -3 61t-6 61q0 31 -5 69.5t-8 66.5l-5 47q-4 22 -15 39l-6 9q-8 9 -8 26q0 7 1.5 17.5t13.5 25t25 19.5t21.5 6.5t18.5 -0.5q6 -1 15 -6
t13 -10q9 -8 14.5 -25t5.5 -29q0 -11 -6 -22q-15 -27 -15 -29l-4 -20q0 -18 -4 -46q-9 -62 -9 -78l-6 -65q0 -13 -2 -25t-4 -29q0 -12 -2.5 -38t-2.5 -31l-5 -98l-3 -85v-22q-2 17 -3 40t-1 45zM578 -85l-6 5l-29 24l-12 14q-15 17 -27 36q-23 36 -24 37q-16 27 -24 49l-3 5
q-9 18 -16 47t-7 50v94l2 9l1 8q5 38 26 75t42 34q22 -23 37 -53.5t15 -59.5l-1 -10l-9 -10q-11 -13 -25 -44q-17 -38 -17 -64q0 -40 5.5 -75t19.5 -78l22 -41l9 -13q6 -10 14.5 -21.5l16.5 -22.5zM706 -84l12 16l19 29t17 30q3 6 9.5 22.5t9.5 26.5l9 42l2 11q0 10 2 32.5
t2 23.5q0 7 -1 18t-4 22l-2 9l-15 37q0 6 -15 26l-16 19q-3 5 0 24t6 25q2 8 4.5 15.5t5.5 11.5l14.5 21.5t13.5 19.5q4 3 9 6h5q2 0 11 -8q3 -2 9 -9q21 -25 28 -44q3 -4 7 -20.5t6 -23.5l7 -47q0 -24 -3 -62t-8 -56q-2 -13 -7.5 -28.5t-14.5 -35.5l-4 -8q-3 -9 -12 -24.5
l-14 -24.5l-37 -50l-10 -11q-6 -8 -12 -13q-1 -1 -14 -11l-18 -14l-5 -3zM215 609l-18 125l-3 66h68l63 -304h-96l-8 57h-27v56h21zM187 734l-15 -125h22v-56h-29l-9 -57h-94l59 304h73v-66h-7zM283 744h55v-248h98v248h55v56h-208v-56zM634 675v69h-18v56h47l66 -43v-80
l-48 -30l48 -28v-123h-95v123h-18v56h18zM597 744v-69h19v-56h-19v-123h-99v304h118v-56h-19zM879 553v191h-20v56h51l67 -43v-217l-63 -44h-55v57h20zM838 744v-191h21v-57h-54l-65 44v217l65 43h54v-56h-21zM1130 496h99l-81 159l73 145h-99l-31 -87l-32 87h-101l78 -145
l-79 -159h97l37 89zM1274 491h4l8 22v-22h6v27h-10l-6 -16l-6 16h-9v-27h6v22zM1244 491h6v22h8v5h-22v-5h8v-22z" />
    <glyph glyph-name="florin" unicode="&#x192;" horiz-adv-x="500" 
d="M463 574v-108h-98l-19 -94h105v-69h-117l-45 -225l-98 -78h-164v108h108l37 195h-98v69h112l25 126l98 76h154z" />
    <glyph glyph-name="quotedblbase" unicode="&#x201e;" horiz-adv-x="439" 
d="M314 0h-68v110h162v-87l-92 -110l-54 29zM100 0h-69v110h160v-87l-89 -110l-55 29z" />
    <glyph glyph-name="ellipsis" unicode="&#x2026;" horiz-adv-x="1000" 
d="M750 111h166v-111h-166v111zM418 111h164v-111h-164v111zM84 111h166v-111h-166v111z" />
    <glyph glyph-name="dagger" unicode="&#x2020;" horiz-adv-x="725" 
d="M353 -147v24q-1 15 -1.5 25.5t-0.5 13.5v13l-4 146q0 9 -2 14l-2 32q1 8 0 21l-2 25q-1 6 -1 12v10v4l-1 16q0 7 -3 10q-1 13 -1 26q-2 9 -3 14v10l-2 5v11l-2 13l1 8l-22 220l-4 26l-2 24l-3 7l1 4q-2 5 -2 6t-1 3l-2 7l1 4l-1 2l-1 5l-3 3q-3 5 -2 8l-4 5l-1 5
q-4 5 -4 8q-4 4 -7 9q1 3 0 5q-1 0 -1 1q-4 3 -6 4l-1 5l-2 2l-3 5l-2 4l3 1l-3 4l3 2l-3 3l2 2l1 4v7l1 23q-2 7 3 11l11 18l1 3h3l1 4h-1l5 2v4h6q1 6 3 6l2 1q9 15 26 18l9 4l13 4h36q4 -2 12.5 -5.5t13.5 -8.5l6 -2l4 -3l6 -4l12 -15q8 -10 10 -16l2 -6l1 -4l3 -7l1 -4
q-2 -3 -1 -4l1 -3l-1 -4v-2l1 -5l1 -3l-1 -2v-4l3 -1q-1 -2 1 -8v-5v-5l-3 3v-7l-1 -4l-3 -6l-2 -1v-3l-2 2l-3 -4q1 -2 0 -4t-2 -3l-4 -4l-2 -3h-1q-2 -3 -2.5 -5l-1.5 -6l-3 -4q1 -1 -3 -7q1 -1 -1 -6l-1 -4q-2 -4 -1 -5l-2 -5v-6l-1 -3l-2 -7l-18 -188l-10 -100v-5
q-1 -4 -1 -8v-5l-3 -15l1 -1q-1 -11 -3 -13v-11v-4l-1 -9q-2 -6 -3 -11v-23l-4 -33l-2 -19l1 -4q-2 -8 -2 -11q1 -9 1 -14q0 -16 -2 -24v-19q-3 -23 -4 -48t-1 -59l-3 -72l-3 -57v-33q-3 20 -3 40v13zM271 -30l-9 6l-9 6l-45 37l-5 8l-12 14q-11 12 -21.5 25.5t-19.5 28.5
l-24 33l-5 9l-5 10l-4 7l-11 20l-4 7l-8 15l-2 5q-2 6 -4 7l-2 6l-3 6l-2 5q-2 8 -4 9l-2 12q-4 6 -4 8l-6 14q-3 6 -3 11l-1 6l-3 5q-3 7 -3 10l-2 19l-3 13l-3 16v10l-2 10q-1 7 -2 8l-1 4l-1 28v9q-2 6 -2 8l-1 6v6v14v20v10v5v6l1 8q1 7 2 15l1 8q1 5 3 8v7l2 8
q1 5 2 11l1 3l2 4v4v4l1 4l2 6v5l3 7l2 4q2 5 2 9l3 9l4 9l2 2v1l2 7l2 9l12 14l1 1q5 11 10 17q9 10 13 14q6 3 12 11l2 2q5 6 13.5 9t10.5 3l5 -3l2 -3l7 -6q3 -1 5 -5t13 -17l2 -3l6 -8l4 -4l1 -4l3 -4q2 -2 3 -4.5t1 -5.5l3 -1q4 -7 5 -11l1 -4v-4q3 -4 3 -6q4 -5 4 -10
l3 -9l1 -8q0 -5 2 -8q1 -5 1 -7v-4l3 -4l-2 -4l3 -3v-4v-5l2 -14q0 -9 -2 -14l-3 -2l-9 -12q0 -2 -3 -2l-3 -5l-4 -4q-5 -7 -7 -12q-6 -13 -11 -20l-3 -5q0 -3 -3 -6t-3 -5l-4 -9q-3 -6 -3 -9l-4 -6l-1 -8l-2 -3l-2 -8q-2 -4 -3.5 -8t-2.5 -9l-1 -12q0 -5 -1 -9l-3 -8
q-1 -11 -1 -17v-47v-7l1 -5v-14q2 -4 2 -11l2 -15l1 -12v-6q3 -10 5 -15l1 -11l1 -9l6 -22q2 -8 4 -9l1 -10l14 -41q2 -7 8 -16.5t8.5 -15t8.5 -16.5t7 -14l14 -19q13 -21 24 -36l23 -32q-5 2 -6 4zM457 -24l6 8q9 11 12 16.5t7 11.5q12 19 13 21l4 2l27 49l3 7q1 2 5.5 7.5
t6.5 8.5q1 9 8 21q4 10 4 19q3 8 6 17l1 10q0 4 1 5.5t2 2.5l2 9q1 3 1 6.5t1 4.5l3 11l3 15l2 18l3 27l1 9l2 16v6v4v22v11l-2 17l-1 10l-2 10l-1 6l-1 8l-3 13l-3 5l-3 11l-5 10q-2 4 -3 9l-1 6q-2 1 -4 8l-4 6q0 4 -3 9t-3 7l-1 1l-2 1q-8 11 -10 16l-3 5v1q-1 1 -6 8
t-7 7v1l-3 4l-2 2l-2 3l-4 5q-1 4 -2 6l2 9l-2 4q1 4 1 5h1v7v8q1 7 3 11q1 4 0 7l2 7l3 9q-2 3 0 4.5t4 7.5t3 6l-2 4q1 1 3 2h1v3l2 5l1 3l3 6q6 11 8 16v2h1v2l5 3l3 8l-1 -3l3 2l1 4q1 -1 2 -1l2 6v-2l2 2l16 25l14 8h4h4q4 -3 8 -5l4 -3l1 -3l3 -2l10 -9l2 -4h2l2 -4
q4 -6 9 -11l1 -1l1 -2l6 -6q1 -3 6.5 -8.5t6.5 -10.5l2 -3q3 -5 4 -7l-3 1l3 -3l1 -3v-4l3 -1l1 -3q2 -6 5 -11l3 -10q1 -5 3 -9v-6v-1l2 -4v-3q0 -9 3 -12l3 -6v-5l2 -9l1 -4q1 -6 1 -8l1 -8v-2q1 -4 3 -8v-6v-5l2 -4l1 -9v-9v-11v-4v-7v-4v-7v-4v-14l-1 -16q-1 -3 -2 -4
v-11q-1 -1 -1 -7t-2 -10v-11l-1 -7l-1 -15l-1 -12l-2 -7l-1 -10l-2 -9l-3 -9v-6v-1l-2 -6l-3 -9q-3 -5 -3 -11l-3 -11q-3 -5 -3 -8l-3 -9l-3 -7l-5 -13l-7 -17l-7 -12l-8 -18l-9 -18l-9 -16q-5 -10 -8 -12l-6 -10l-23 -36l-6 -6l-26 -34l-15 -16q-9 -10 -21 -21t-18 -17
q-11 -8 -16 -11l-13 -10l-8 -5zM529 -187h6l11 32v-32h10v40h-15l-9 -24l-10 24h-13v-40h8v32zM482 -187h10v32h12v8h-35v-8h13v-32z" />
    <glyph glyph-name="daggerdbl" unicode="&#x2021;" horiz-adv-x="1354" 
d="M754 -192l11 22v-22h6v27h-10l-6 -16l-5 16h-10v-27h6v22zM723 -192h6v22h8v5h-23v-5h9v-22zM636 -115q0 25 -2.5 70t-2.5 56q0 33 -3 61t-6 61q0 31 -5 69.5t-8 66.5l-5 47q-4 22 -15 39l-6 9q-8 9 -8 26q0 7 1.5 17.5t13.5 25t25 19.5t21.5 6.5t18.5 -0.5q6 -1 15 -6
t13 -10q9 -8 14.5 -25t5.5 -29q0 -11 -6 -22q-15 -27 -15 -29l-4 -20q0 -18 -4 -46q-9 -62 -9 -78l-6 -65q0 -13 -2 -25t-4 -29q0 -12 -2.5 -38t-2.5 -31l-5 -98l-3 -85v-22q-2 17 -3 40t-1 45zM578 -85l-6 5l-29 24l-12 14q-15 17 -27 36q-23 36 -24 37q-16 27 -24 49l-3 5
q-9 18 -16 47t-7 50v94l2 9l1 8q5 38 26 75t42 34q22 -23 37 -53.5t15 -59.5l-1 -10l-9 -10q-11 -13 -25 -44q-17 -38 -17 -64q0 -40 5.5 -75t19.5 -78l22 -41l9 -13q6 -10 14.5 -21.5l16.5 -22.5zM706 -84l12 16l19 29t17 30q3 6 9.5 22.5t9.5 26.5l9 42l2 11q0 10 2 32.5
t2 23.5q0 7 -1 18t-4 22l-2 9l-15 37q0 6 -15 26l-16 19q-3 5 0 24t6 25q2 8 4.5 15.5t5.5 11.5l14.5 21.5t13.5 19.5q4 3 9 6h5q2 0 11 -8q3 -2 9 -9q21 -25 28 -44q3 -4 7 -20.5t6 -23.5l7 -47q0 -24 -3 -62t-8 -56q-2 -13 -7.5 -28.5t-14.5 -35.5l-4 -8q-3 -9 -12 -24.5
l-14 -24.5l-37 -50l-10 -11q-6 -8 -12 -13q-1 -1 -14 -11l-18 -14l-5 -3zM215 609l-18 125l-3 66h68l63 -304h-96l-8 57h-27v56h21zM187 734l-15 -125h22v-56h-29l-9 -57h-94l59 304h73v-66h-7zM283 744h55v-248h98v248h55v56h-208v-56zM634 675v69h-18v56h47l66 -43v-80
l-48 -30l48 -28v-123h-95v123h-18v56h18zM597 744v-69h19v-56h-19v-123h-99v304h118v-56h-19zM879 553v191h-20v56h51l67 -43v-217l-63 -44h-55v57h20zM838 744v-191h21v-57h-54l-65 44v217l65 43h54v-56h-21zM1130 496h99l-81 159l73 145h-99l-31 -87l-32 87h-101l78 -145
l-79 -159h97l37 89zM1274 491h4l8 22v-22h6v27h-10l-6 -16l-6 16h-9v-27h6v22zM1244 491h6v22h8v5h-22v-5h8v-22z" />
    <glyph glyph-name="circumflex" unicode="&#x2c6;" horiz-adv-x="500" 
d="M256 662l-156 -39l-28 39l110 74h148l109 -74l-29 -39z" />
    <glyph glyph-name="perthousand" unicode="&#x2030;" horiz-adv-x="1240" 
d="M74 518l71 56h128l71 -57v-247l-71 -54h-128l-71 54v248zM234 500h-50v-210h50v210zM297 0l232 574h71l-227 -574h-76zM553 302l70 56h129l70 -56v-248l-70 -54h-129l-70 54v248zM713 284h-51v-210h51v210zM896 302l71 56h129l68 -56v-248l-68 -54h-129l-71 54v248z
M1057 284h-51v-210h51v210z" />
    <glyph glyph-name="Scaron" unicode="&#x160;" horiz-adv-x="1354" 
d="M754 -192l11 22v-22h6v27h-10l-6 -16l-5 16h-10v-27h6v22zM723 -192h6v22h8v5h-23v-5h9v-22zM636 -115q0 25 -2.5 70t-2.5 56q0 33 -3 61t-6 61q0 31 -5 69.5t-8 66.5l-5 47q-4 22 -15 39l-6 9q-8 9 -8 26q0 7 1.5 17.5t13.5 25t25 19.5t21.5 6.5t18.5 -0.5q6 -1 15 -6
t13 -10q9 -8 14.5 -25t5.5 -29q0 -11 -6 -22q-15 -27 -15 -29l-4 -20q0 -18 -4 -46q-9 -62 -9 -78l-6 -65q0 -13 -2 -25t-4 -29q0 -12 -2.5 -38t-2.5 -31l-5 -98l-3 -85v-22q-2 17 -3 40t-1 45zM578 -85l-6 5l-29 24l-12 14q-15 17 -27 36q-23 36 -24 37q-16 27 -24 49l-3 5
q-9 18 -16 47t-7 50v94l2 9l1 8q5 38 26 75t42 34q22 -23 37 -53.5t15 -59.5l-1 -10l-9 -10q-11 -13 -25 -44q-17 -38 -17 -64q0 -40 5.5 -75t19.5 -78l22 -41l9 -13q6 -10 14.5 -21.5l16.5 -22.5zM706 -84l12 16l19 29t17 30q3 6 9.5 22.5t9.5 26.5l9 42l2 11q0 10 2 32.5
t2 23.5q0 7 -1 18t-4 22l-2 9l-15 37q0 6 -15 26l-16 19q-3 5 0 24t6 25q2 8 4.5 15.5t5.5 11.5l14.5 21.5t13.5 19.5q4 3 9 6h5q2 0 11 -8q3 -2 9 -9q21 -25 28 -44q3 -4 7 -20.5t6 -23.5l7 -47q0 -24 -3 -62t-8 -56q-2 -13 -7.5 -28.5t-14.5 -35.5l-4 -8q-3 -9 -12 -24.5
l-14 -24.5l-37 -50l-10 -11q-6 -8 -12 -13q-1 -1 -14 -11l-18 -14l-5 -3zM215 609l-18 125l-3 66h68l63 -304h-96l-8 57h-27v56h21zM187 734l-15 -125h22v-56h-29l-9 -57h-94l59 304h73v-66h-7zM283 744h55v-248h98v248h55v56h-208v-56zM634 675v69h-18v56h47l66 -43v-80
l-48 -30l48 -28v-123h-95v123h-18v56h18zM597 744v-69h19v-56h-19v-123h-99v304h118v-56h-19zM879 553v191h-20v56h51l67 -43v-217l-63 -44h-55v57h20zM838 744v-191h21v-57h-54l-65 44v217l65 43h54v-56h-21zM1130 496h99l-81 159l73 145h-99l-31 -87l-32 87h-101l78 -145
l-79 -159h97l37 89zM1274 491h4l8 22v-22h6v27h-10l-6 -16l-6 16h-9v-27h6v22zM1244 491h6v22h8v5h-22v-5h8v-22z" />
    <glyph glyph-name="guilsinglleft" unicode="&#x2039;" horiz-adv-x="260" 
d="M150 294l53 -155l-53 -23l-91 115v125l91 114l53 -23z" />
    <glyph glyph-name="OE" unicode="&#x152;" horiz-adv-x="600" 
d="M273 466h-70v-358h70v358zM436 466v-108h123v-109h-123v-141h148v-108h-438l-109 83v407l109 84h430v-108h-140z" />
    <glyph glyph-name="c141" horiz-adv-x="4423" 
d="M696 182l-59 408h-10v210h224l201 -984h-310l-24 183h-91v183h69zM606 590l-48 -408h69v-183h-92l-25 -183h-309l194 984h232v-210h-21zM912 617h178v-801h317v801h178v183h-673v-183zM2067 390v227h-68v183h160l211 -141v-263l-158 -95l158 -94v-391h-303v391h-68v183
h68zM1932 617v-227h67v-183h-67v-391h-316v984h383v-183h-67zM2850 -1v618h-60v183h162l214 -141v-703l-204 -140h-172v183h60zM2728 617v-618h62v-183h-172l-206 140v703l209 141h169v-183h-62zM3671 -184h316l-258 514l235 470h-316l-103 -280l-104 280h-321l247 -470
l-255 -514h314l119 287zM4165 -200h13l27 69v-69h17v87h-29l-22 -52l-20 52h-30v-87h17v69zM4064 -200h18v69h29v18h-73v-18h26v-69z" />
    <glyph glyph-name="c142" horiz-adv-x="725" 
d="M353 -147v24q-1 15 -1.5 25.5t-0.5 13.5v13l-4 146q0 9 -2 14l-2 32q1 8 0 21l-2 25q-1 6 -1 12v10v4l-1 16q0 7 -3 10q-1 13 -1 26q-2 9 -3 14v10l-2 5v11l-2 13l1 8l-22 220l-4 26l-2 24l-3 7l1 4q-2 5 -2 6t-1 3l-2 7l1 4l-1 2l-1 5l-3 3q-3 5 -2 8l-4 5l-1 5
q-4 5 -4 8q-4 4 -7 9q1 3 0 5q-1 0 -1 1q-4 3 -6 4l-1 5l-2 2l-3 5l-2 4l3 1l-3 4l3 2l-3 3l2 2l1 4v7l1 23q-2 7 3 11l11 18l1 3h3l1 4h-1l5 2v4h6q1 6 3 6l2 1q9 15 26 18l9 4l13 4h36q4 -2 12.5 -5.5t13.5 -8.5l6 -2l4 -3l6 -4l12 -15q8 -10 10 -16l2 -6l1 -4l3 -7l1 -4
q-2 -3 -1 -4l1 -3l-1 -4v-2l1 -5l1 -3l-1 -2v-4l3 -1q-1 -2 1 -8v-5v-5l-3 3v-7l-1 -4l-3 -6l-2 -1v-3l-2 2l-3 -4q1 -2 0 -4t-2 -3l-4 -4l-2 -3h-1q-2 -3 -2.5 -5l-1.5 -6l-3 -4q1 -1 -3 -7q1 -1 -1 -6l-1 -4q-2 -4 -1 -5l-2 -5v-6l-1 -3l-2 -7l-18 -188l-10 -100v-5
q-1 -4 -1 -8v-5l-3 -15l1 -1q-1 -11 -3 -13v-11v-4l-1 -9q-2 -6 -3 -11v-23l-4 -33l-2 -19l1 -4q-2 -8 -2 -11q1 -9 1 -14q0 -16 -2 -24v-19q-3 -23 -4 -48t-1 -59l-3 -72l-3 -57v-33q-3 20 -3 40v13zM271 -30l-9 6l-9 6l-45 37l-5 8l-12 14q-11 12 -21.5 25.5t-19.5 28.5
l-24 33l-5 9l-5 10l-4 7l-11 20l-4 7l-8 15l-2 5q-2 6 -4 7l-2 6l-3 6l-2 5q-2 8 -4 9l-2 12q-4 6 -4 8l-6 14q-3 6 -3 11l-1 6l-3 5q-3 7 -3 10l-2 19l-3 13l-3 16v10l-2 10q-1 7 -2 8l-1 4l-1 28v9q-2 6 -2 8l-1 6v6v14v20v10v5v6l1 8q1 7 2 15l1 8q1 5 3 8v7l2 8
q1 5 2 11l1 3l2 4v4v4l1 4l2 6v5l3 7l2 4q2 5 2 9l3 9l4 9l2 2v1l2 7l2 9l12 14l1 1q5 11 10 17q9 10 13 14q6 3 12 11l2 2q5 6 13.5 9t10.5 3l5 -3l2 -3l7 -6q3 -1 5 -5t13 -17l2 -3l6 -8l4 -4l1 -4l3 -4q2 -2 3 -4.5t1 -5.5l3 -1q4 -7 5 -11l1 -4v-4q3 -4 3 -6q4 -5 4 -10
l3 -9l1 -8q0 -5 2 -8q1 -5 1 -7v-4l3 -4l-2 -4l3 -3v-4v-5l2 -14q0 -9 -2 -14l-3 -2l-9 -12q0 -2 -3 -2l-3 -5l-4 -4q-5 -7 -7 -12q-6 -13 -11 -20l-3 -5q0 -3 -3 -6t-3 -5l-4 -9q-3 -6 -3 -9l-4 -6l-1 -8l-2 -3l-2 -8q-2 -4 -3.5 -8t-2.5 -9l-1 -12q0 -5 -1 -9l-3 -8
q-1 -11 -1 -17v-47v-7l1 -5v-14q2 -4 2 -11l2 -15l1 -12v-6q3 -10 5 -15l1 -11l1 -9l6 -22q2 -8 4 -9l1 -10l14 -41q2 -7 8 -16.5t8.5 -15t8.5 -16.5t7 -14l14 -19q13 -21 24 -36l23 -32q-5 2 -6 4zM457 -24l6 8q9 11 12 16.5t7 11.5q12 19 13 21l4 2l27 49l3 7q1 2 5.5 7.5
t6.5 8.5q1 9 8 21q4 10 4 19q3 8 6 17l1 10q0 4 1 5.5t2 2.5l2 9q1 3 1 6.5t1 4.5l3 11l3 15l2 18l3 27l1 9l2 16v6v4v22v11l-2 17l-1 10l-2 10l-1 6l-1 8l-3 13l-3 5l-3 11l-5 10q-2 4 -3 9l-1 6q-2 1 -4 8l-4 6q0 4 -3 9t-3 7l-1 1l-2 1q-8 11 -10 16l-3 5v1q-1 1 -6 8
t-7 7v1l-3 4l-2 2l-2 3l-4 5q-1 4 -2 6l2 9l-2 4q1 4 1 5h1v7v8q1 7 3 11q1 4 0 7l2 7l3 9q-2 3 0 4.5t4 7.5t3 6l-2 4q1 1 3 2h1v3l2 5l1 3l3 6q6 11 8 16v2h1v2l5 3l3 8l-1 -3l3 2l1 4q1 -1 2 -1l2 6v-2l2 2l16 25l14 8h4h4q4 -3 8 -5l4 -3l1 -3l3 -2l10 -9l2 -4h2l2 -4
q4 -6 9 -11l1 -1l1 -2l6 -6q1 -3 6.5 -8.5t6.5 -10.5l2 -3q3 -5 4 -7l-3 1l3 -3l1 -3v-4l3 -1l1 -3q2 -6 5 -11l3 -10q1 -5 3 -9v-6v-1l2 -4v-3q0 -9 3 -12l3 -6v-5l2 -9l1 -4q1 -6 1 -8l1 -8v-2q1 -4 3 -8v-6v-5l2 -4l1 -9v-9v-11v-4v-7v-4v-7v-4v-14l-1 -16q-1 -3 -2 -4
v-11q-1 -1 -1 -7t-2 -10v-11l-1 -7l-1 -15l-1 -12l-2 -7l-1 -10l-2 -9l-3 -9v-6v-1l-2 -6l-3 -9q-3 -5 -3 -11l-3 -11q-3 -5 -3 -8l-3 -9l-3 -7l-5 -13l-7 -17l-7 -12l-8 -18l-9 -18l-9 -16q-5 -10 -8 -12l-6 -10l-23 -36l-6 -6l-26 -34l-15 -16q-9 -10 -21 -21t-18 -17
q-11 -8 -16 -11l-13 -10l-8 -5zM529 -187h6l11 32v-32h10v40h-15l-9 -24l-10 24h-13v-40h8v32zM482 -187h10v32h12v8h-35v-8h13v-32z" />
    <glyph glyph-name="c143" horiz-adv-x="1354" 
d="M754 -192l11 22v-22h6v27h-10l-6 -16l-5 16h-10v-27h6v22zM723 -192h6v22h8v5h-23v-5h9v-22zM636 -115q0 25 -2.5 70t-2.5 56q0 33 -3 61t-6 61q0 31 -5 69.5t-8 66.5l-5 47q-4 22 -15 39l-6 9q-8 9 -8 26q0 7 1.5 17.5t13.5 25t25 19.5t21.5 6.5t18.5 -0.5q6 -1 15 -6
t13 -10q9 -8 14.5 -25t5.5 -29q0 -11 -6 -22q-15 -27 -15 -29l-4 -20q0 -18 -4 -46q-9 -62 -9 -78l-6 -65q0 -13 -2 -25t-4 -29q0 -12 -2.5 -38t-2.5 -31l-5 -98l-3 -85v-22q-2 17 -3 40t-1 45zM578 -85l-6 5l-29 24l-12 14q-15 17 -27 36q-23 36 -24 37q-16 27 -24 49l-3 5
q-9 18 -16 47t-7 50v94l2 9l1 8q5 38 26 75t42 34q22 -23 37 -53.5t15 -59.5l-1 -10l-9 -10q-11 -13 -25 -44q-17 -38 -17 -64q0 -40 5.5 -75t19.5 -78l22 -41l9 -13q6 -10 14.5 -21.5l16.5 -22.5zM706 -84l12 16l19 29t17 30q3 6 9.5 22.5t9.5 26.5l9 42l2 11q0 10 2 32.5
t2 23.5q0 7 -1 18t-4 22l-2 9l-15 37q0 6 -15 26l-16 19q-3 5 0 24t6 25q2 8 4.5 15.5t5.5 11.5l14.5 21.5t13.5 19.5q4 3 9 6h5q2 0 11 -8q3 -2 9 -9q21 -25 28 -44q3 -4 7 -20.5t6 -23.5l7 -47q0 -24 -3 -62t-8 -56q-2 -13 -7.5 -28.5t-14.5 -35.5l-4 -8q-3 -9 -12 -24.5
l-14 -24.5l-37 -50l-10 -11q-6 -8 -12 -13q-1 -1 -14 -11l-18 -14l-5 -3zM215 609l-18 125l-3 66h68l63 -304h-96l-8 57h-27v56h21zM187 734l-15 -125h22v-56h-29l-9 -57h-94l59 304h73v-66h-7zM283 744h55v-248h98v248h55v56h-208v-56zM634 675v69h-18v56h47l66 -43v-80
l-48 -30l48 -28v-123h-95v123h-18v56h18zM597 744v-69h19v-56h-19v-123h-99v304h118v-56h-19zM879 553v191h-20v56h51l67 -43v-217l-63 -44h-55v57h20zM838 744v-191h21v-57h-54l-65 44v217l65 43h54v-56h-21zM1130 496h99l-81 159l73 145h-99l-31 -87l-32 87h-101l78 -145
l-79 -159h97l37 89zM1274 491h4l8 22v-22h6v27h-10l-6 -16l-6 16h-9v-27h6v22zM1244 491h6v22h8v5h-22v-5h8v-22z" />
    <glyph glyph-name="c144" horiz-adv-x="1354" 
d="M754 -192l11 22v-22h6v27h-10l-6 -16l-5 16h-10v-27h6v22zM723 -192h6v22h8v5h-23v-5h9v-22zM636 -115q0 25 -2.5 70t-2.5 56q0 33 -3 61t-6 61q0 31 -5 69.5t-8 66.5l-5 47q-4 22 -15 39l-6 9q-8 9 -8 26q0 7 1.5 17.5t13.5 25t25 19.5t21.5 6.5t18.5 -0.5q6 -1 15 -6
t13 -10q9 -8 14.5 -25t5.5 -29q0 -11 -6 -22q-15 -27 -15 -29l-4 -20q0 -18 -4 -46q-9 -62 -9 -78l-6 -65q0 -13 -2 -25t-4 -29q0 -12 -2.5 -38t-2.5 -31l-5 -98l-3 -85v-22q-2 17 -3 40t-1 45zM578 -85l-6 5l-29 24l-12 14q-15 17 -27 36q-23 36 -24 37q-16 27 -24 49l-3 5
q-9 18 -16 47t-7 50v94l2 9l1 8q5 38 26 75t42 34q22 -23 37 -53.5t15 -59.5l-1 -10l-9 -10q-11 -13 -25 -44q-17 -38 -17 -64q0 -40 5.5 -75t19.5 -78l22 -41l9 -13q6 -10 14.5 -21.5l16.5 -22.5zM706 -84l12 16l19 29t17 30q3 6 9.5 22.5t9.5 26.5l9 42l2 11q0 10 2 32.5
t2 23.5q0 7 -1 18t-4 22l-2 9l-15 37q0 6 -15 26l-16 19q-3 5 0 24t6 25q2 8 4.5 15.5t5.5 11.5l14.5 21.5t13.5 19.5q4 3 9 6h5q2 0 11 -8q3 -2 9 -9q21 -25 28 -44q3 -4 7 -20.5t6 -23.5l7 -47q0 -24 -3 -62t-8 -56q-2 -13 -7.5 -28.5t-14.5 -35.5l-4 -8q-3 -9 -12 -24.5
l-14 -24.5l-37 -50l-10 -11q-6 -8 -12 -13q-1 -1 -14 -11l-18 -14l-5 -3zM215 609l-18 125l-3 66h68l63 -304h-96l-8 57h-27v56h21zM187 734l-15 -125h22v-56h-29l-9 -57h-94l59 304h73v-66h-7zM283 744h55v-248h98v248h55v56h-208v-56zM634 675v69h-18v56h47l66 -43v-80
l-48 -30l48 -28v-123h-95v123h-18v56h18zM597 744v-69h19v-56h-19v-123h-99v304h118v-56h-19zM879 553v191h-20v56h51l67 -43v-217l-63 -44h-55v57h20zM838 744v-191h21v-57h-54l-65 44v217l65 43h54v-56h-21zM1130 496h99l-81 159l73 145h-99l-31 -87l-32 87h-101l78 -145
l-79 -159h97l37 89zM1274 491h4l8 22v-22h6v27h-10l-6 -16l-6 16h-9v-27h6v22zM1244 491h6v22h8v5h-22v-5h8v-22z" />
    <glyph glyph-name="quoteleft" unicode="&#x2018;" horiz-adv-x="221" 
d="M189 498v-111h-160v87l92 112l55 -32l-53 -56h66z" />
    <glyph glyph-name="quoteright" unicode="&#x2019;" horiz-adv-x="221" 
d="M98 464h-69v111h160v-88l-89 -110l-55 31z" />
    <glyph glyph-name="quotedblleft" unicode="&#x201c;" horiz-adv-x="439" 
d="M406 498v-111h-160v87l92 110l55 -30l-51 -56h64zM191 498v-111h-160v87l92 112l55 -32l-53 -56h66z" />
    <glyph glyph-name="quotedblright" unicode="&#x201d;" horiz-adv-x="439" 
d="M314 464h-66v111h160v-86l-92 -112l-54 31zM100 464h-69v111h160v-88l-89 -110l-55 31z" />
    <glyph glyph-name="bullet" unicode="&#x2022;" 
d="M148 342h166v-111h-166v111z" />
    <glyph glyph-name="endash" unicode="&#x2013;" horiz-adv-x="500" 
d="M0 331h500v-77h-500v77z" />
    <glyph glyph-name="emdash" unicode="&#x2014;" horiz-adv-x="1000" 
d="M0 331h998h4v-77h-998h-4v77z" />
    <glyph glyph-name="tilde" unicode="&#x2dc;" horiz-adv-x="480" 
d="M260 623l-72 44l-73 -41l-43 33l137 77l74 -44l71 42l46 -32z" />
    <glyph glyph-name="trademark" unicode="&#x2122;" horiz-adv-x="881" 
d="M490 511v-261h-86v325h141l92 -192l92 192h140v-325h-88v261l-119 -261h-53zM135 511h-123v64h342v-64h-124v-261h-95v261z" />
    <glyph glyph-name="scaron" unicode="&#x161;" horiz-adv-x="1354" 
d="M754 -192l11 22v-22h6v27h-10l-6 -16l-5 16h-10v-27h6v22zM723 -192h6v22h8v5h-23v-5h9v-22zM636 -115q0 25 -2.5 70t-2.5 56q0 33 -3 61t-6 61q0 31 -5 69.5t-8 66.5l-5 47q-4 22 -15 39l-6 9q-8 9 -8 26q0 7 1.5 17.5t13.5 25t25 19.5t21.5 6.5t18.5 -0.5q6 -1 15 -6
t13 -10q9 -8 14.5 -25t5.5 -29q0 -11 -6 -22q-15 -27 -15 -29l-4 -20q0 -18 -4 -46q-9 -62 -9 -78l-6 -65q0 -13 -2 -25t-4 -29q0 -12 -2.5 -38t-2.5 -31l-5 -98l-3 -85v-22q-2 17 -3 40t-1 45zM578 -85l-6 5l-29 24l-12 14q-15 17 -27 36q-23 36 -24 37q-16 27 -24 49l-3 5
q-9 18 -16 47t-7 50v94l2 9l1 8q5 38 26 75t42 34q22 -23 37 -53.5t15 -59.5l-1 -10l-9 -10q-11 -13 -25 -44q-17 -38 -17 -64q0 -40 5.5 -75t19.5 -78l22 -41l9 -13q6 -10 14.5 -21.5l16.5 -22.5zM706 -84l12 16l19 29t17 30q3 6 9.5 22.5t9.5 26.5l9 42l2 11q0 10 2 32.5
t2 23.5q0 7 -1 18t-4 22l-2 9l-15 37q0 6 -15 26l-16 19q-3 5 0 24t6 25q2 8 4.5 15.5t5.5 11.5l14.5 21.5t13.5 19.5q4 3 9 6h5q2 0 11 -8q3 -2 9 -9q21 -25 28 -44q3 -4 7 -20.5t6 -23.5l7 -47q0 -24 -3 -62t-8 -56q-2 -13 -7.5 -28.5t-14.5 -35.5l-4 -8q-3 -9 -12 -24.5
l-14 -24.5l-37 -50l-10 -11q-6 -8 -12 -13q-1 -1 -14 -11l-18 -14l-5 -3zM215 609l-18 125l-3 66h68l63 -304h-96l-8 57h-27v56h21zM187 734l-15 -125h22v-56h-29l-9 -57h-94l59 304h73v-66h-7zM283 744h55v-248h98v248h55v56h-208v-56zM634 675v69h-18v56h47l66 -43v-80
l-48 -30l48 -28v-123h-95v123h-18v56h18zM597 744v-69h19v-56h-19v-123h-99v304h118v-56h-19zM879 553v191h-20v56h51l67 -43v-217l-63 -44h-55v57h20zM838 744v-191h21v-57h-54l-65 44v217l65 43h54v-56h-21zM1130 496h99l-81 159l73 145h-99l-31 -87l-32 87h-101l78 -145
l-79 -159h97l37 89zM1274 491h4l8 22v-22h6v27h-10l-6 -16l-6 16h-9v-27h6v22zM1244 491h6v22h8v5h-22v-5h8v-22z" />
    <glyph glyph-name="guilsinglright" unicode="&#x203a;" horiz-adv-x="260" 
d="M109 294l-50 153l50 23l94 -114v-125l-94 -115l-50 23z" />
    <glyph glyph-name="oe" unicode="&#x153;" horiz-adv-x="611" 
d="M273 466h-70v-358h70v358zM436 466v-108h123v-109h-123v-141h148v-108h-438l-109 83v407l109 84h430v-108h-140z" />
    <glyph glyph-name="c157" horiz-adv-x="4423" 
d="M696 182l-59 408h-10v210h224l201 -984h-310l-24 183h-91v183h69zM606 590l-48 -408h69v-183h-92l-25 -183h-309l194 984h232v-210h-21zM912 617h178v-801h317v801h178v183h-673v-183zM2067 390v227h-68v183h160l211 -141v-263l-158 -95l158 -94v-391h-303v391h-68v183
h68zM1932 617v-227h67v-183h-67v-391h-316v984h383v-183h-67zM2850 -1v618h-60v183h162l214 -141v-703l-204 -140h-172v183h60zM2728 617v-618h62v-183h-172l-206 140v703l209 141h169v-183h-62zM3671 -184h316l-258 514l235 470h-316l-103 -280l-104 280h-321l247 -470
l-255 -514h314l119 287zM4165 -200h13l27 69v-69h17v87h-29l-22 -52l-20 52h-30v-87h17v69zM4064 -200h18v69h29v18h-73v-18h26v-69z" />
    <glyph glyph-name="c158" horiz-adv-x="725" 
d="M353 -147v24q-1 15 -1.5 25.5t-0.5 13.5v13l-4 146q0 9 -2 14l-2 32q1 8 0 21l-2 25q-1 6 -1 12v10v4l-1 16q0 7 -3 10q-1 13 -1 26q-2 9 -3 14v10l-2 5v11l-2 13l1 8l-22 220l-4 26l-2 24l-3 7l1 4q-2 5 -2 6t-1 3l-2 7l1 4l-1 2l-1 5l-3 3q-3 5 -2 8l-4 5l-1 5
q-4 5 -4 8q-4 4 -7 9q1 3 0 5q-1 0 -1 1q-4 3 -6 4l-1 5l-2 2l-3 5l-2 4l3 1l-3 4l3 2l-3 3l2 2l1 4v7l1 23q-2 7 3 11l11 18l1 3h3l1 4h-1l5 2v4h6q1 6 3 6l2 1q9 15 26 18l9 4l13 4h36q4 -2 12.5 -5.5t13.5 -8.5l6 -2l4 -3l6 -4l12 -15q8 -10 10 -16l2 -6l1 -4l3 -7l1 -4
q-2 -3 -1 -4l1 -3l-1 -4v-2l1 -5l1 -3l-1 -2v-4l3 -1q-1 -2 1 -8v-5v-5l-3 3v-7l-1 -4l-3 -6l-2 -1v-3l-2 2l-3 -4q1 -2 0 -4t-2 -3l-4 -4l-2 -3h-1q-2 -3 -2.5 -5l-1.5 -6l-3 -4q1 -1 -3 -7q1 -1 -1 -6l-1 -4q-2 -4 -1 -5l-2 -5v-6l-1 -3l-2 -7l-18 -188l-10 -100v-5
q-1 -4 -1 -8v-5l-3 -15l1 -1q-1 -11 -3 -13v-11v-4l-1 -9q-2 -6 -3 -11v-23l-4 -33l-2 -19l1 -4q-2 -8 -2 -11q1 -9 1 -14q0 -16 -2 -24v-19q-3 -23 -4 -48t-1 -59l-3 -72l-3 -57v-33q-3 20 -3 40v13zM271 -30l-9 6l-9 6l-45 37l-5 8l-12 14q-11 12 -21.5 25.5t-19.5 28.5
l-24 33l-5 9l-5 10l-4 7l-11 20l-4 7l-8 15l-2 5q-2 6 -4 7l-2 6l-3 6l-2 5q-2 8 -4 9l-2 12q-4 6 -4 8l-6 14q-3 6 -3 11l-1 6l-3 5q-3 7 -3 10l-2 19l-3 13l-3 16v10l-2 10q-1 7 -2 8l-1 4l-1 28v9q-2 6 -2 8l-1 6v6v14v20v10v5v6l1 8q1 7 2 15l1 8q1 5 3 8v7l2 8
q1 5 2 11l1 3l2 4v4v4l1 4l2 6v5l3 7l2 4q2 5 2 9l3 9l4 9l2 2v1l2 7l2 9l12 14l1 1q5 11 10 17q9 10 13 14q6 3 12 11l2 2q5 6 13.5 9t10.5 3l5 -3l2 -3l7 -6q3 -1 5 -5t13 -17l2 -3l6 -8l4 -4l1 -4l3 -4q2 -2 3 -4.5t1 -5.5l3 -1q4 -7 5 -11l1 -4v-4q3 -4 3 -6q4 -5 4 -10
l3 -9l1 -8q0 -5 2 -8q1 -5 1 -7v-4l3 -4l-2 -4l3 -3v-4v-5l2 -14q0 -9 -2 -14l-3 -2l-9 -12q0 -2 -3 -2l-3 -5l-4 -4q-5 -7 -7 -12q-6 -13 -11 -20l-3 -5q0 -3 -3 -6t-3 -5l-4 -9q-3 -6 -3 -9l-4 -6l-1 -8l-2 -3l-2 -8q-2 -4 -3.5 -8t-2.5 -9l-1 -12q0 -5 -1 -9l-3 -8
q-1 -11 -1 -17v-47v-7l1 -5v-14q2 -4 2 -11l2 -15l1 -12v-6q3 -10 5 -15l1 -11l1 -9l6 -22q2 -8 4 -9l1 -10l14 -41q2 -7 8 -16.5t8.5 -15t8.5 -16.5t7 -14l14 -19q13 -21 24 -36l23 -32q-5 2 -6 4zM457 -24l6 8q9 11 12 16.5t7 11.5q12 19 13 21l4 2l27 49l3 7q1 2 5.5 7.5
t6.5 8.5q1 9 8 21q4 10 4 19q3 8 6 17l1 10q0 4 1 5.5t2 2.5l2 9q1 3 1 6.5t1 4.5l3 11l3 15l2 18l3 27l1 9l2 16v6v4v22v11l-2 17l-1 10l-2 10l-1 6l-1 8l-3 13l-3 5l-3 11l-5 10q-2 4 -3 9l-1 6q-2 1 -4 8l-4 6q0 4 -3 9t-3 7l-1 1l-2 1q-8 11 -10 16l-3 5v1q-1 1 -6 8
t-7 7v1l-3 4l-2 2l-2 3l-4 5q-1 4 -2 6l2 9l-2 4q1 4 1 5h1v7v8q1 7 3 11q1 4 0 7l2 7l3 9q-2 3 0 4.5t4 7.5t3 6l-2 4q1 1 3 2h1v3l2 5l1 3l3 6q6 11 8 16v2h1v2l5 3l3 8l-1 -3l3 2l1 4q1 -1 2 -1l2 6v-2l2 2l16 25l14 8h4h4q4 -3 8 -5l4 -3l1 -3l3 -2l10 -9l2 -4h2l2 -4
q4 -6 9 -11l1 -1l1 -2l6 -6q1 -3 6.5 -8.5t6.5 -10.5l2 -3q3 -5 4 -7l-3 1l3 -3l1 -3v-4l3 -1l1 -3q2 -6 5 -11l3 -10q1 -5 3 -9v-6v-1l2 -4v-3q0 -9 3 -12l3 -6v-5l2 -9l1 -4q1 -6 1 -8l1 -8v-2q1 -4 3 -8v-6v-5l2 -4l1 -9v-9v-11v-4v-7v-4v-7v-4v-14l-1 -16q-1 -3 -2 -4
v-11q-1 -1 -1 -7t-2 -10v-11l-1 -7l-1 -15l-1 -12l-2 -7l-1 -10l-2 -9l-3 -9v-6v-1l-2 -6l-3 -9q-3 -5 -3 -11l-3 -11q-3 -5 -3 -8l-3 -9l-3 -7l-5 -13l-7 -17l-7 -12l-8 -18l-9 -18l-9 -16q-5 -10 -8 -12l-6 -10l-23 -36l-6 -6l-26 -34l-15 -16q-9 -10 -21 -21t-18 -17
q-11 -8 -16 -11l-13 -10l-8 -5zM529 -187h6l11 32v-32h10v40h-15l-9 -24l-10 24h-13v-40h8v32zM482 -187h10v32h12v8h-35v-8h13v-32z" />
    <glyph glyph-name="Ydieresis" unicode="&#x178;" horiz-adv-x="1354" 
d="M754 -192l11 22v-22h6v27h-10l-6 -16l-5 16h-10v-27h6v22zM723 -192h6v22h8v5h-23v-5h9v-22zM636 -115q0 25 -2.5 70t-2.5 56q0 33 -3 61t-6 61q0 31 -5 69.5t-8 66.5l-5 47q-4 22 -15 39l-6 9q-8 9 -8 26q0 7 1.5 17.5t13.5 25t25 19.5t21.5 6.5t18.5 -0.5q6 -1 15 -6
t13 -10q9 -8 14.5 -25t5.5 -29q0 -11 -6 -22q-15 -27 -15 -29l-4 -20q0 -18 -4 -46q-9 -62 -9 -78l-6 -65q0 -13 -2 -25t-4 -29q0 -12 -2.5 -38t-2.5 -31l-5 -98l-3 -85v-22q-2 17 -3 40t-1 45zM578 -85l-6 5l-29 24l-12 14q-15 17 -27 36q-23 36 -24 37q-16 27 -24 49l-3 5
q-9 18 -16 47t-7 50v94l2 9l1 8q5 38 26 75t42 34q22 -23 37 -53.5t15 -59.5l-1 -10l-9 -10q-11 -13 -25 -44q-17 -38 -17 -64q0 -40 5.5 -75t19.5 -78l22 -41l9 -13q6 -10 14.5 -21.5l16.5 -22.5zM706 -84l12 16l19 29t17 30q3 6 9.5 22.5t9.5 26.5l9 42l2 11q0 10 2 32.5
t2 23.5q0 7 -1 18t-4 22l-2 9l-15 37q0 6 -15 26l-16 19q-3 5 0 24t6 25q2 8 4.5 15.5t5.5 11.5l14.5 21.5t13.5 19.5q4 3 9 6h5q2 0 11 -8q3 -2 9 -9q21 -25 28 -44q3 -4 7 -20.5t6 -23.5l7 -47q0 -24 -3 -62t-8 -56q-2 -13 -7.5 -28.5t-14.5 -35.5l-4 -8q-3 -9 -12 -24.5
l-14 -24.5l-37 -50l-10 -11q-6 -8 -12 -13q-1 -1 -14 -11l-18 -14l-5 -3zM215 609l-18 125l-3 66h68l63 -304h-96l-8 57h-27v56h21zM187 734l-15 -125h22v-56h-29l-9 -57h-94l59 304h73v-66h-7zM283 744h55v-248h98v248h55v56h-208v-56zM634 675v69h-18v56h47l66 -43v-80
l-48 -30l48 -28v-123h-95v123h-18v56h18zM597 744v-69h19v-56h-19v-123h-99v304h118v-56h-19zM879 553v191h-20v56h51l67 -43v-217l-63 -44h-55v57h20zM838 744v-191h21v-57h-54l-65 44v217l65 43h54v-56h-21zM1130 496h99l-81 159l73 145h-99l-31 -87l-32 87h-101l78 -145
l-79 -159h97l37 89zM1274 491h4l8 22v-22h6v27h-10l-6 -16l-6 16h-9v-27h6v22zM1244 491h6v22h8v5h-22v-5h8v-22z" />
    <glyph glyph-name="nonbreakingspace" unicode="&#xa0;" horiz-adv-x="1354" 
d="M754 -192l11 22v-22h6v27h-10l-6 -16l-5 16h-10v-27h6v22zM723 -192h6v22h8v5h-23v-5h9v-22zM636 -115q0 25 -2.5 70t-2.5 56q0 33 -3 61t-6 61q0 31 -5 69.5t-8 66.5l-5 47q-4 22 -15 39l-6 9q-8 9 -8 26q0 7 1.5 17.5t13.5 25t25 19.5t21.5 6.5t18.5 -0.5q6 -1 15 -6
t13 -10q9 -8 14.5 -25t5.5 -29q0 -11 -6 -22q-15 -27 -15 -29l-4 -20q0 -18 -4 -46q-9 -62 -9 -78l-6 -65q0 -13 -2 -25t-4 -29q0 -12 -2.5 -38t-2.5 -31l-5 -98l-3 -85v-22q-2 17 -3 40t-1 45zM578 -85l-6 5l-29 24l-12 14q-15 17 -27 36q-23 36 -24 37q-16 27 -24 49l-3 5
q-9 18 -16 47t-7 50v94l2 9l1 8q5 38 26 75t42 34q22 -23 37 -53.5t15 -59.5l-1 -10l-9 -10q-11 -13 -25 -44q-17 -38 -17 -64q0 -40 5.5 -75t19.5 -78l22 -41l9 -13q6 -10 14.5 -21.5l16.5 -22.5zM706 -84l12 16l19 29t17 30q3 6 9.5 22.5t9.5 26.5l9 42l2 11q0 10 2 32.5
t2 23.5q0 7 -1 18t-4 22l-2 9l-15 37q0 6 -15 26l-16 19q-3 5 0 24t6 25q2 8 4.5 15.5t5.5 11.5l14.5 21.5t13.5 19.5q4 3 9 6h5q2 0 11 -8q3 -2 9 -9q21 -25 28 -44q3 -4 7 -20.5t6 -23.5l7 -47q0 -24 -3 -62t-8 -56q-2 -13 -7.5 -28.5t-14.5 -35.5l-4 -8q-3 -9 -12 -24.5
l-14 -24.5l-37 -50l-10 -11q-6 -8 -12 -13q-1 -1 -14 -11l-18 -14l-5 -3zM215 609l-18 125l-3 66h68l63 -304h-96l-8 57h-27v56h21zM187 734l-15 -125h22v-56h-29l-9 -57h-94l59 304h73v-66h-7zM283 744h55v-248h98v248h55v56h-208v-56zM634 675v69h-18v56h47l66 -43v-80
l-48 -30l48 -28v-123h-95v123h-18v56h18zM597 744v-69h19v-56h-19v-123h-99v304h118v-56h-19zM879 553v191h-20v56h51l67 -43v-217l-63 -44h-55v57h20zM838 744v-191h21v-57h-54l-65 44v217l65 43h54v-56h-21zM1130 496h99l-81 159l73 145h-99l-31 -87l-32 87h-101l78 -145
l-79 -159h97l37 89zM1274 491h4l8 22v-22h6v27h-10l-6 -16l-6 16h-9v-27h6v22zM1244 491h6v22h8v5h-22v-5h8v-22z" />
    <glyph glyph-name="exclamdown" unicode="&#xa1;" horiz-adv-x="359" 
d="M98 331h166v-111h-166v111zM146 169h69l49 -236v-175h-166v173z" />
    <glyph glyph-name="cent" unicode="&#xa2;" 
d="M279 406h-97v-236h97v88h155v-112l-106 -85h-57v-61h-80v61h-52l-114 85v285l104 83h62v61h80v-61h57l106 -83v-101h-155v76z" />
    <glyph glyph-name="sterling" unicode="&#xa3;" horiz-adv-x="539" 
d="M328 466h-78v-130h68v-69h-68v-159h96v133h158v-158l-111 -83h-358v108h55v159h-55v69h55v154l103 84h192l101 -84v-120h-158v96z" />
    <glyph glyph-name="currency" unicode="&#xa4;" horiz-adv-x="600" 
d="M47 425l80 65l43 -36q57 30 133 30q77 0 131 -30l43 36l78 -64l-43 -36q37 -44 37 -104q0 -54 -39 -102l45 -35l-78 -63l-45 36q-28 -15 -61 -24t-72 -9q-38 0 -68.5 7.5t-60.5 23.5l-43 -34l-80 63l45 35q-18 20 -27.5 45t-9.5 58q0 68 37 103zM295 386q-31 0 -58 -15.5
t-44 -38.5q-15 -23 -15 -48q0 -22 16 -46q17 -22 44 -36q31 -13 65 -13q35 0 64 13q28 15 42.5 37.5t14.5 47.5q0 40 -34.5 69.5t-94.5 29.5z" />
    <glyph glyph-name="yen" unicode="&#xa5;" horiz-adv-x="520" 
d="M320 574h166l-134 -323h134v-68h-138v-183h-168v183h-139v68h135l-143 323h164l65 -208z" />
    <glyph glyph-name="brokenbar" unicode="&#xa6;" horiz-adv-x="379" 
d="M236 574h125v-574h-125v574z" />
    <glyph glyph-name="section" unicode="&#xa7;" horiz-adv-x="1354" 
d="M754 -192l11 22v-22h6v27h-10l-6 -16l-5 16h-10v-27h6v22zM723 -192h6v22h8v5h-23v-5h9v-22zM636 -115q0 25 -2.5 70t-2.5 56q0 33 -3 61t-6 61q0 31 -5 69.5t-8 66.5l-5 47q-4 22 -15 39l-6 9q-8 9 -8 26q0 7 1.5 17.5t13.5 25t25 19.5t21.5 6.5t18.5 -0.5q6 -1 15 -6
t13 -10q9 -8 14.5 -25t5.5 -29q0 -11 -6 -22q-15 -27 -15 -29l-4 -20q0 -18 -4 -46q-9 -62 -9 -78l-6 -65q0 -13 -2 -25t-4 -29q0 -12 -2.5 -38t-2.5 -31l-5 -98l-3 -85v-22q-2 17 -3 40t-1 45zM578 -85l-6 5l-29 24l-12 14q-15 17 -27 36q-23 36 -24 37q-16 27 -24 49l-3 5
q-9 18 -16 47t-7 50v94l2 9l1 8q5 38 26 75t42 34q22 -23 37 -53.5t15 -59.5l-1 -10l-9 -10q-11 -13 -25 -44q-17 -38 -17 -64q0 -40 5.5 -75t19.5 -78l22 -41l9 -13q6 -10 14.5 -21.5l16.5 -22.5zM706 -84l12 16l19 29t17 30q3 6 9.5 22.5t9.5 26.5l9 42l2 11q0 10 2 32.5
t2 23.5q0 7 -1 18t-4 22l-2 9l-15 37q0 6 -15 26l-16 19q-3 5 0 24t6 25q2 8 4.5 15.5t5.5 11.5l14.5 21.5t13.5 19.5q4 3 9 6h5q2 0 11 -8q3 -2 9 -9q21 -25 28 -44q3 -4 7 -20.5t6 -23.5l7 -47q0 -24 -3 -62t-8 -56q-2 -13 -7.5 -28.5t-14.5 -35.5l-4 -8q-3 -9 -12 -24.5
l-14 -24.5l-37 -50l-10 -11q-6 -8 -12 -13q-1 -1 -14 -11l-18 -14l-5 -3zM215 609l-18 125l-3 66h68l63 -304h-96l-8 57h-27v56h21zM187 734l-15 -125h22v-56h-29l-9 -57h-94l59 304h73v-66h-7zM283 744h55v-248h98v248h55v56h-208v-56zM634 675v69h-18v56h47l66 -43v-80
l-48 -30l48 -28v-123h-95v123h-18v56h18zM597 744v-69h19v-56h-19v-123h-99v304h118v-56h-19zM879 553v191h-20v56h51l67 -43v-217l-63 -44h-55v57h20zM838 744v-191h21v-57h-54l-65 44v217l65 43h54v-56h-21zM1130 496h99l-81 159l73 145h-99l-31 -87l-32 87h-101l78 -145
l-79 -159h97l37 89zM1274 491h4l8 22v-22h6v27h-10l-6 -16l-6 16h-9v-27h6v22zM1244 491h6v22h8v5h-22v-5h8v-22z" />
    <glyph glyph-name="dieresis" unicode="&#xa8;" horiz-adv-x="439" 
d="M72 731h131v-101h-131v101zM244 731h131v-101h-131v101z" />
    <glyph glyph-name="copyright" unicode="&#xa9;" horiz-adv-x="740" 
d="M23 292q0 68 42 133.5t121.5 107.5t180.5 42q77 0 146 -25q32 -12 59.5 -28.5t52.5 -38.5q47 -45 69.5 -94t22.5 -100q0 -65 -30.5 -120t-78.5 -91t-110 -57t-123 -21q-104 0 -183 40.5t-126 109.5q-43 69 -43 142zM90 290q0 -61 34 -114.5t101 -88.5q34 -17 70.5 -25.5
t79.5 -8.5q71 0 134 31q32 15 57 36t47 49q39 54 39 117q0 60 -37 113.5t-100 85.5q-67 35 -138 35q-44 0 -94 -13.5t-94.5 -43.5t-71.5 -74t-27 -99zM195 292q0 40 15.5 70.5t42 51t60.5 31.5q33 9 68 9q45 0 79.5 -12.5t56.5 -37t30 -58.5h-78q-6 27 -30 41q-22 16 -58 16
q-27 0 -53 -13q-26 -15 -40.5 -39.5t-14.5 -61.5q0 -48 33 -80t83 -32q31 0 55.5 17t24.5 42h78q-7 -52 -52.5 -81.5t-111.5 -29.5q-59 0 -103 25q-43 22 -64 60t-21 82z" />
    <glyph glyph-name="ordfeminine" unicode="&#xaa;" horiz-adv-x="1354" 
d="M754 -192l11 22v-22h6v27h-10l-6 -16l-5 16h-10v-27h6v22zM723 -192h6v22h8v5h-23v-5h9v-22zM636 -115q0 25 -2.5 70t-2.5 56q0 33 -3 61t-6 61q0 31 -5 69.5t-8 66.5l-5 47q-4 22 -15 39l-6 9q-8 9 -8 26q0 7 1.5 17.5t13.5 25t25 19.5t21.5 6.5t18.5 -0.5q6 -1 15 -6
t13 -10q9 -8 14.5 -25t5.5 -29q0 -11 -6 -22q-15 -27 -15 -29l-4 -20q0 -18 -4 -46q-9 -62 -9 -78l-6 -65q0 -13 -2 -25t-4 -29q0 -12 -2.5 -38t-2.5 -31l-5 -98l-3 -85v-22q-2 17 -3 40t-1 45zM578 -85l-6 5l-29 24l-12 14q-15 17 -27 36q-23 36 -24 37q-16 27 -24 49l-3 5
q-9 18 -16 47t-7 50v94l2 9l1 8q5 38 26 75t42 34q22 -23 37 -53.5t15 -59.5l-1 -10l-9 -10q-11 -13 -25 -44q-17 -38 -17 -64q0 -40 5.5 -75t19.5 -78l22 -41l9 -13q6 -10 14.5 -21.5l16.5 -22.5zM706 -84l12 16l19 29t17 30q3 6 9.5 22.5t9.5 26.5l9 42l2 11q0 10 2 32.5
t2 23.5q0 7 -1 18t-4 22l-2 9l-15 37q0 6 -15 26l-16 19q-3 5 0 24t6 25q2 8 4.5 15.5t5.5 11.5l14.5 21.5t13.5 19.5q4 3 9 6h5q2 0 11 -8q3 -2 9 -9q21 -25 28 -44q3 -4 7 -20.5t6 -23.5l7 -47q0 -24 -3 -62t-8 -56q-2 -13 -7.5 -28.5t-14.5 -35.5l-4 -8q-3 -9 -12 -24.5
l-14 -24.5l-37 -50l-10 -11q-6 -8 -12 -13q-1 -1 -14 -11l-18 -14l-5 -3zM215 609l-18 125l-3 66h68l63 -304h-96l-8 57h-27v56h21zM187 734l-15 -125h22v-56h-29l-9 -57h-94l59 304h73v-66h-7zM283 744h55v-248h98v248h55v56h-208v-56zM634 675v69h-18v56h47l66 -43v-80
l-48 -30l48 -28v-123h-95v123h-18v56h18zM597 744v-69h19v-56h-19v-123h-99v304h118v-56h-19zM879 553v191h-20v56h51l67 -43v-217l-63 -44h-55v57h20zM838 744v-191h21v-57h-54l-65 44v217l65 43h54v-56h-21zM1130 496h99l-81 159l73 145h-99l-31 -87l-32 87h-101l78 -145
l-79 -159h97l37 89zM1274 491h4l8 22v-22h6v27h-10l-6 -16l-6 16h-9v-27h6v22zM1244 491h6v22h8v5h-22v-5h8v-22z" />
    <glyph glyph-name="guillemotleft" unicode="&#xab;" horiz-adv-x="420" 
d="M313 292l52 -153l-52 -23l-92 115v125l92 114l52 -23zM150 292l51 -153l-51 -23l-93 115v125l91 114l53 -23z" />
    <glyph glyph-name="logicalnot" unicode="&#xac;" horiz-adv-x="600" 
d="M443 328h-402v94h518v-244h-116v150z" />
    <glyph glyph-name="minus" unicode="&#xad;" horiz-adv-x="1354" 
d="M754 -192l11 22v-22h6v27h-10l-6 -16l-5 16h-10v-27h6v22zM723 -192h6v22h8v5h-23v-5h9v-22zM636 -115q0 25 -2.5 70t-2.5 56q0 33 -3 61t-6 61q0 31 -5 69.5t-8 66.5l-5 47q-4 22 -15 39l-6 9q-8 9 -8 26q0 7 1.5 17.5t13.5 25t25 19.5t21.5 6.5t18.5 -0.5q6 -1 15 -6
t13 -10q9 -8 14.5 -25t5.5 -29q0 -11 -6 -22q-15 -27 -15 -29l-4 -20q0 -18 -4 -46q-9 -62 -9 -78l-6 -65q0 -13 -2 -25t-4 -29q0 -12 -2.5 -38t-2.5 -31l-5 -98l-3 -85v-22q-2 17 -3 40t-1 45zM578 -85l-6 5l-29 24l-12 14q-15 17 -27 36q-23 36 -24 37q-16 27 -24 49l-3 5
q-9 18 -16 47t-7 50v94l2 9l1 8q5 38 26 75t42 34q22 -23 37 -53.5t15 -59.5l-1 -10l-9 -10q-11 -13 -25 -44q-17 -38 -17 -64q0 -40 5.5 -75t19.5 -78l22 -41l9 -13q6 -10 14.5 -21.5l16.5 -22.5zM706 -84l12 16l19 29t17 30q3 6 9.5 22.5t9.5 26.5l9 42l2 11q0 10 2 32.5
t2 23.5q0 7 -1 18t-4 22l-2 9l-15 37q0 6 -15 26l-16 19q-3 5 0 24t6 25q2 8 4.5 15.5t5.5 11.5l14.5 21.5t13.5 19.5q4 3 9 6h5q2 0 11 -8q3 -2 9 -9q21 -25 28 -44q3 -4 7 -20.5t6 -23.5l7 -47q0 -24 -3 -62t-8 -56q-2 -13 -7.5 -28.5t-14.5 -35.5l-4 -8q-3 -9 -12 -24.5
l-14 -24.5l-37 -50l-10 -11q-6 -8 -12 -13q-1 -1 -14 -11l-18 -14l-5 -3zM215 609l-18 125l-3 66h68l63 -304h-96l-8 57h-27v56h21zM187 734l-15 -125h22v-56h-29l-9 -57h-94l59 304h73v-66h-7zM283 744h55v-248h98v248h55v56h-208v-56zM634 675v69h-18v56h47l66 -43v-80
l-48 -30l48 -28v-123h-95v123h-18v56h18zM597 744v-69h19v-56h-19v-123h-99v304h118v-56h-19zM879 553v191h-20v56h51l67 -43v-217l-63 -44h-55v57h20zM838 744v-191h21v-57h-54l-65 44v217l65 43h54v-56h-21zM1130 496h99l-81 159l73 145h-99l-31 -87l-32 87h-101l78 -145
l-79 -159h97l37 89zM1274 491h4l8 22v-22h6v27h-10l-6 -16l-6 16h-9v-27h6v22zM1244 491h6v22h8v5h-22v-5h8v-22z" />
    <glyph glyph-name="registered" unicode="&#xae;" horiz-adv-x="740" 
d="M229 441h183q47 0 75 -7q16 -3 28 -9.5t21 -17.5q19 -19 19 -61q0 -41 -23 -60t-79 -25l90 -131h-84l-84 131h-74v-131h-72v311zM424 308q56 0 56 45q0 26 -20.5 35t-61.5 9h-97v-89h123zM23 283q0 59 27.5 113t76 94.5t112.5 61.5q31 10 65.5 16t68.5 6q45 0 85 -9
t83 -27q81 -37 129.5 -101t48.5 -150q0 -69 -32 -122.5t-84 -90.5t-111.5 -55.5t-114.5 -18.5q-92 0 -174.5 37.5t-131 103t-48.5 142.5zM90 283q0 -46 22.5 -88t63.5 -74t92 -50q25 -8 51 -13t52 -5q28 0 54.5 4t52.5 13q52 18 90.5 50t61 74.5t22.5 91.5q0 54 -22.5 96
t-61.5 73t-92 48t-105 17q-59 0 -124 -25t-112 -79t-47 -132z" />
    <glyph glyph-name="macron" unicode="&#xaf;" horiz-adv-x="4423" 
d="M696 182l-59 408h-10v210h224l201 -984h-310l-24 183h-91v183h69zM606 590l-48 -408h69v-183h-92l-25 -183h-309l194 984h232v-210h-21zM912 617h178v-801h317v801h178v183h-673v-183zM2067 390v227h-68v183h160l211 -141v-263l-158 -95l158 -94v-391h-303v391h-68v183
h68zM1932 617v-227h67v-183h-67v-391h-316v984h383v-183h-67zM2850 -1v618h-60v183h162l214 -141v-703l-204 -140h-172v183h60zM2728 617v-618h62v-183h-172l-206 140v703l209 141h169v-183h-62zM3671 -184h316l-258 514l235 470h-316l-103 -280l-104 280h-321l247 -470
l-255 -514h314l119 287zM4165 -200h13l27 69v-69h17v87h-29l-22 -52l-20 52h-30v-87h17v69zM4064 -200h18v69h29v18h-73v-18h26v-69z" />
    <glyph glyph-name="degree" unicode="&#xb0;" horiz-adv-x="725" 
d="M353 -147v24q-1 15 -1.5 25.5t-0.5 13.5v13l-4 146q0 9 -2 14l-2 32q1 8 0 21l-2 25q-1 6 -1 12v10v4l-1 16q0 7 -3 10q-1 13 -1 26q-2 9 -3 14v10l-2 5v11l-2 13l1 8l-22 220l-4 26l-2 24l-3 7l1 4q-2 5 -2 6t-1 3l-2 7l1 4l-1 2l-1 5l-3 3q-3 5 -2 8l-4 5l-1 5
q-4 5 -4 8q-4 4 -7 9q1 3 0 5q-1 0 -1 1q-4 3 -6 4l-1 5l-2 2l-3 5l-2 4l3 1l-3 4l3 2l-3 3l2 2l1 4v7l1 23q-2 7 3 11l11 18l1 3h3l1 4h-1l5 2v4h6q1 6 3 6l2 1q9 15 26 18l9 4l13 4h36q4 -2 12.5 -5.5t13.5 -8.5l6 -2l4 -3l6 -4l12 -15q8 -10 10 -16l2 -6l1 -4l3 -7l1 -4
q-2 -3 -1 -4l1 -3l-1 -4v-2l1 -5l1 -3l-1 -2v-4l3 -1q-1 -2 1 -8v-5v-5l-3 3v-7l-1 -4l-3 -6l-2 -1v-3l-2 2l-3 -4q1 -2 0 -4t-2 -3l-4 -4l-2 -3h-1q-2 -3 -2.5 -5l-1.5 -6l-3 -4q1 -1 -3 -7q1 -1 -1 -6l-1 -4q-2 -4 -1 -5l-2 -5v-6l-1 -3l-2 -7l-18 -188l-10 -100v-5
q-1 -4 -1 -8v-5l-3 -15l1 -1q-1 -11 -3 -13v-11v-4l-1 -9q-2 -6 -3 -11v-23l-4 -33l-2 -19l1 -4q-2 -8 -2 -11q1 -9 1 -14q0 -16 -2 -24v-19q-3 -23 -4 -48t-1 -59l-3 -72l-3 -57v-33q-3 20 -3 40v13zM271 -30l-9 6l-9 6l-45 37l-5 8l-12 14q-11 12 -21.5 25.5t-19.5 28.5
l-24 33l-5 9l-5 10l-4 7l-11 20l-4 7l-8 15l-2 5q-2 6 -4 7l-2 6l-3 6l-2 5q-2 8 -4 9l-2 12q-4 6 -4 8l-6 14q-3 6 -3 11l-1 6l-3 5q-3 7 -3 10l-2 19l-3 13l-3 16v10l-2 10q-1 7 -2 8l-1 4l-1 28v9q-2 6 -2 8l-1 6v6v14v20v10v5v6l1 8q1 7 2 15l1 8q1 5 3 8v7l2 8
q1 5 2 11l1 3l2 4v4v4l1 4l2 6v5l3 7l2 4q2 5 2 9l3 9l4 9l2 2v1l2 7l2 9l12 14l1 1q5 11 10 17q9 10 13 14q6 3 12 11l2 2q5 6 13.5 9t10.5 3l5 -3l2 -3l7 -6q3 -1 5 -5t13 -17l2 -3l6 -8l4 -4l1 -4l3 -4q2 -2 3 -4.5t1 -5.5l3 -1q4 -7 5 -11l1 -4v-4q3 -4 3 -6q4 -5 4 -10
l3 -9l1 -8q0 -5 2 -8q1 -5 1 -7v-4l3 -4l-2 -4l3 -3v-4v-5l2 -14q0 -9 -2 -14l-3 -2l-9 -12q0 -2 -3 -2l-3 -5l-4 -4q-5 -7 -7 -12q-6 -13 -11 -20l-3 -5q0 -3 -3 -6t-3 -5l-4 -9q-3 -6 -3 -9l-4 -6l-1 -8l-2 -3l-2 -8q-2 -4 -3.5 -8t-2.5 -9l-1 -12q0 -5 -1 -9l-3 -8
q-1 -11 -1 -17v-47v-7l1 -5v-14q2 -4 2 -11l2 -15l1 -12v-6q3 -10 5 -15l1 -11l1 -9l6 -22q2 -8 4 -9l1 -10l14 -41q2 -7 8 -16.5t8.5 -15t8.5 -16.5t7 -14l14 -19q13 -21 24 -36l23 -32q-5 2 -6 4zM457 -24l6 8q9 11 12 16.5t7 11.5q12 19 13 21l4 2l27 49l3 7q1 2 5.5 7.5
t6.5 8.5q1 9 8 21q4 10 4 19q3 8 6 17l1 10q0 4 1 5.5t2 2.5l2 9q1 3 1 6.5t1 4.5l3 11l3 15l2 18l3 27l1 9l2 16v6v4v22v11l-2 17l-1 10l-2 10l-1 6l-1 8l-3 13l-3 5l-3 11l-5 10q-2 4 -3 9l-1 6q-2 1 -4 8l-4 6q0 4 -3 9t-3 7l-1 1l-2 1q-8 11 -10 16l-3 5v1q-1 1 -6 8
t-7 7v1l-3 4l-2 2l-2 3l-4 5q-1 4 -2 6l2 9l-2 4q1 4 1 5h1v7v8q1 7 3 11q1 4 0 7l2 7l3 9q-2 3 0 4.5t4 7.5t3 6l-2 4q1 1 3 2h1v3l2 5l1 3l3 6q6 11 8 16v2h1v2l5 3l3 8l-1 -3l3 2l1 4q1 -1 2 -1l2 6v-2l2 2l16 25l14 8h4h4q4 -3 8 -5l4 -3l1 -3l3 -2l10 -9l2 -4h2l2 -4
q4 -6 9 -11l1 -1l1 -2l6 -6q1 -3 6.5 -8.5t6.5 -10.5l2 -3q3 -5 4 -7l-3 1l3 -3l1 -3v-4l3 -1l1 -3q2 -6 5 -11l3 -10q1 -5 3 -9v-6v-1l2 -4v-3q0 -9 3 -12l3 -6v-5l2 -9l1 -4q1 -6 1 -8l1 -8v-2q1 -4 3 -8v-6v-5l2 -4l1 -9v-9v-11v-4v-7v-4v-7v-4v-14l-1 -16q-1 -3 -2 -4
v-11q-1 -1 -1 -7t-2 -10v-11l-1 -7l-1 -15l-1 -12l-2 -7l-1 -10l-2 -9l-3 -9v-6v-1l-2 -6l-3 -9q-3 -5 -3 -11l-3 -11q-3 -5 -3 -8l-3 -9l-3 -7l-5 -13l-7 -17l-7 -12l-8 -18l-9 -18l-9 -16q-5 -10 -8 -12l-6 -10l-23 -36l-6 -6l-26 -34l-15 -16q-9 -10 -21 -21t-18 -17
q-11 -8 -16 -11l-13 -10l-8 -5zM529 -187h6l11 32v-32h10v40h-15l-9 -24l-10 24h-13v-40h8v32zM482 -187h10v32h12v8h-35v-8h13v-32z" />
    <glyph glyph-name="plusminus" unicode="&#xb1;" horiz-adv-x="768" 
d="M140 755h-70v-4h5l12 -3l5 -6l1 -15v-106v-13q0 -4 -4 -10l-7 -5l-11 -2l-1 -4h59v4q-11 0 -16.5 4t-7.5 10l-1 16v118l64 -152l67 154v-126l-1 -15l-5 -6l-12 -3h-6v-4h89v4h-6l-11 3q-3 1 -4.5 3t-1.5 3l-1 15v112l1 15q3 5 6 6l11 3h6v4h-68l-46 -109zM419 610
q15 18 15 60q0 32 -9.5 50t-20.5 22v12l29 -7q22 -8 34 -29.5t12 -47.5q0 -16 -5 -33q-6 -14 -16 -24t-22.5 -16t-26.5 -9h-5v10q9 5 15 12zM374 747v-133l1 -13l3 -4l10 -2l16 3v-10l-19 -1h-76v4h6q8 0 11 3l6 6l1 15v112l-1 15q-1 5 -6 6q-3 3 -11 3h-6v4h76l19 -1v-12
q-12 5 -30 5zM542 753h-70v-5h5l11 -3l6 -5l1 -15v-107v-13l-4 -9l-7 -5l-11 -2l-1 -4h58v4q-10 0 -16 3.5t-8 10.5v15v119l64 -152l67 153v-125q0 -13 -2 -15l-4 -7l-13 -2h-5v-4h89v4h-6l-12 2l-5 7l-2 15v112l2 15l5 5l12 3h6v5h-68l-46 -110zM730 800l3 -3h-6l3 -2h-692
v5h692l3 -3zM733 543l-3 -2v5l-3 -3v254h6v-254l-3 -2zM38 541l-3 2h5l-2 3h692v-5h-692l-3 2zM35 797l3 3v-5l2 2v-254h-5v254l3 3zM74 498l2 -5l17 -21l17 22l2 4v-6v-27h6v40h-6l-18 -26l-20 26h-5v-40h5v27v4v2zM169 470v23h-14v5h12l6 -2l2 -6v-18l-1 -5l-7 -2h-12v5
h14zM141 493v-23h14v-5h-12l-7 2l-1 5v18l1 6q1 1 7 2h12v-5h-14zM201 465l10 25l9 -25h4l13 33h-5l-10 -26l-9 26h-4l-10 -26l-9 26h-7l13 -33h5zM284 474q4 3 4 12q0 7 -5 10.5t-11 3.5v5h8l7 -3l6 -7l2 -9l-2 -10l-6 -7l-6 -3l-9 -1v6zM255 500v-29h15l2 -6h-23v40h22
l1 -5h-17zM342 470v23h-14v5h12l6 -2l2 -6v-18l-1 -5l-7 -2h-12v5h14zM314 493v-23h14v-5h-12l-6 2l-2 5v18l2 6l6 2h12v-5h-14zM374 465l10 25l10 -25h4l13 33h-6l-9 -26l-10 26h-4l-10 -26l-9 26h-6l13 -33h4zM427 489l2 -3l25 -21h4v33h-6v-20l1 -6l-2 3l-2 2l-24 21h-5
v-33h6v21l-1 6zM481 498l3 -5l16 -21l17 22l3 4v-6v-27h5v40h-5l-19 -26l-20 26h-5v-40h6v27v4zM544 498v-26l1 -5l7 -2h20l7 2l1 5v26h-6v-28h-24v28h-6zM624 489l6 1l-2 6l-6 2h-18l-6 -2l-2 -6q0 -4 2 -8l6 -1h21v-11h-25v6l-6 -1l2 -8l6 -2h20l7 2l1 7v4q-1 5 -2 6l-6 1
h-21v8h23v-4zM651 498h-6v-33h6v33zM694 486l7 1l-2 9q-5 2 -7 2h-19l-6 -2l-2 -6v-18l2 -5l6 -2h19l7 2l2 5v5l-7 1v-8h-23v23h23v-7zM686 438l2 12l5 -12l6 12v-12l1 14l-7 -12l-4 12zM671 452l5 -2v-12l2 12h5zM522 378v-87q-6 44 -32 64q-13 10 -33.5 16.5t-46.5 6.5
h112zM331 -123q6 0 12 1.5t9 2.5q25 7 38 31l19 -35h-78zM298 16q0 -18 -6.5 -25.5t-22.5 -7.5q-15 0 -20.5 7.5t-5.5 25.5v210q0 20 5.5 30.5t20.5 10.5q13 0 22 -9q7 -11 7 -25v-7l-2 -9h226v-58h-252v-112h28v-31zM269 -182l4 1l-2 6l-4 1h-17l-5 -2l-1 -5v-13l1 -5l5 -1
h17l5 1l1 5v8h-15l11 -3v-7h-21v18h21v-4zM289 -200v10h12v4h-12v8h20v4h-24v-26h4zM317 -174v-20l1 -5l4 -1h16l4 1l2 5v20h-5v-22h-18v22h-4zM361 -200v15v6l2 -3l20 -18l3 26h-4v-15v-4h-2l-20 19l-3 -26h4zM403 -200v11l17 -11h8l-21 13l18 13h-6l-16 -11v11h-4v-26h4z
M464 -185l2 9l3 -9l4 9v-9l2 10l-6 -8l-3 8zM454 -175l3 -1v-9l1 9h4z" />
    <glyph glyph-name="twosuperior" unicode="&#xb2;" horiz-adv-x="2120" 
d="M381 676h-188v-10h15q19 0 32 -7q11 -8 13.5 -15.5t3.5 -16.5t1 -29v-294l-2 -35q-4 -20 -10 -26q-8 -13 -19 -15q-12 -6 -30 -6h-4v-11h156v11q-29 0 -46 11q-7 7 -11 13.5t-6 15t-2 27.5v15v330l182 -423h8l180 425v-345q0 -34 -4 -44q-9 -14 -15 -17t-15 -5.5
t-17 -2.5h-15v-11h241v11h-17q-16 0 -28.5 7.5t-16.5 17.5t-4 44v307q0 34 5 44q3 12 12 15q12 9 32 9h17v10h-186l-129 -306zM1157 275q40 54 40 165q0 91 -28 146q-21 41 -54 56v32q23 -2 42.5 -6.5t39.5 -12.5q59 -28 93 -84q32 -58 32 -127q0 -53 -16 -92.5t-41.5 -67.5
t-57.5 -43q-15 -8 -37 -15.5t-43 -10.5l-12 -2v29q24 11 42 33zM1112 644q-24 11 -80 11v-370q0 -31 1.5 -34.5t3 -6.5t10.5 -6t23 -3q27 0 45 7v-29l-51 -2h-208v11h15q20 0 32 6q4 4 8.5 9t5.5 10q5 8 5 44v307q0 34 -5 44q-3 9 -14 16.5t-32 7.5h-15v10h208l51 -2v-32z
M1491 670h-189v-11h15q20 0 31.5 -6.5t14.5 -16.5q5 -10 5 -44v-294l-2 -36q-3 -10 -5.5 -16t-5.5 -9q-7 -12 -19 -15q-14 -7 -29 -7h-5v-10h157v10q-15 0 -26 3t-21 8q-6 7 -10.5 13.5t-6.5 14.5t-2 28v16v329l182 -422h9l179 425v-345q0 -36 -4 -44q-7 -15 -15 -17
q-9 -5 -17.5 -7t-14.5 -2h-15v-10h242v10h-17q-9 0 -16.5 2.5t-13.5 6.5q-12 5 -14.5 13t-3.5 17t-1 31v307q0 32 4 44t13 15q11 8 32 8h17v11h-186l-130 -307zM2017 800h7v-7h-14l7 -7h-1914v14h1914l7 -7zM2024 90v-7h-7v15l-7 -8v703h14v-703l-7 -7zM103 83h-7v7h15l-8 8
h1914v-15h-1914l-7 7zM96 793v7h7v-14l8 7v-703h-15v703l7 7zM211 -47l45 -60h4l44 62l3 4l4 7l-2 -8v-7v-75h17v110h-17l-50 -72l-55 72h-14v-110h16v75l-2 8v7zM466 -110v63h-37v13h32q14 0 18 -4t4 -18v-47q0 -13 -4 -17t-18 -4h-32v14h37zM390 -47v-63h39v-14h-34
q-14 0 -18 4.5t-4 16.5v47q0 13 4 17.5t18 4.5h34v-13h-39zM554 -124l27 67l26 -67h13l35 90h-16l-26 -69l-26 69h-10l-28 -69l-25 69h-17l35 -90h12zM785 -100q12 10 12 31t-12 31q-5 3 -14.5 5.5t-17.5 2.5v15h22l17 -7q10 -7 16.5 -18t6.5 -29q0 -19 -6 -27
q-6 -13 -17 -19l-17 -8l-22 -1v16q21 0 32 8zM746 -30h-39v-78h39h7v-16h-4h-60v110h60l4 -1v-15h-7zM945 -110v63h-38v13h32q15 0 19 -4t4 -18v-47q0 -13 -4 -17t-19 -4h-32v14h38zM869 -47v-63h38v-14h-34q-13 0 -17 4t-4 17v47q0 14 4 18t17 4h34v-13h-38zM1032 -124
l28 67l26 -67h13l34 90h-15l-27 -69l-25 69h-10l-28 -69l-25 69h-17l35 -90h11zM1179 -59l5 -5l69 -60h12v90h-16v-55l2 -8v-9l-6 8l-6 5l-66 59h-13v-90h16v55l-1 9v9zM1336 -47l45 -60h4l44 62l3 4l4 7l-2 -8v-7v-75h18v110h-18l-50 -72l-55 72h-14v-110h16v75l-2 8v7z
M1501 -34v-69q0 -11 4 -16t18 -5h57q13 0 17 4t4 17v69h-17v-76h-66v76h-17zM1724 -59l15 3q0 14 -4 18t-19 4h-49q-13 0 -17 -5t-4 -17v-8q0 -10 4 -15t17 -5h58v-26h-68v13l-15 -4q0 -15 4 -19t19 -4h53q14 0 18.5 4.5t4.5 16.5v10q0 14 -4.5 18.5t-18.5 4.5h-56v23h62
v-12zM1800 -34h-18v-90h18v90zM1918 -66l17 2v8q0 14 -4 18t-19 4h-53q-13 0 -17 -4t-4 -18v-47q0 -13 4 -17t17 -4h53q15 0 19 4t4 17v10l-17 4v-21h-63v63h63v-19zM1894 -162v-38h5v33l14 -33l16 33v-33h5v38h-9l-11 -31l-11 31h-9zM1853 -162v-5h14v-33h6v33h12v5h-32z
" />
    <glyph glyph-name="threesuperior" unicode="&#xb3;" horiz-adv-x="483" 
d="M22 -200h439v1000h-439v-1000zM410 755v-108q-8 54 -39 79q-16 12 -42 20.5t-57 8.5h138zM175 135q15 2 25 6q31 9 47 38l23 -44h-95zM134 308q0 -22 -8.5 -31.5t-27.5 -9.5q-18 0 -25 9t-7 32v259q0 26 7 39q3 5 10 8t15 3q16 0 27 -11q9 -11 9 -30v-4v-5l-3 -11h279
v-72h-311v-138h35v-38z" />
    <glyph glyph-name="acute" unicode="&#xb4;" horiz-adv-x="381" 
d="M72 644l143 107l49 5l41 -51l-22 -36l-178 -64z" />
    <glyph glyph-name="mu" unicode="&#xb5;" horiz-adv-x="1354" 
d="M754 -192l11 22v-22h6v27h-10l-6 -16l-5 16h-10v-27h6v22zM723 -192h6v22h8v5h-23v-5h9v-22zM636 -115q0 25 -2.5 70t-2.5 56q0 33 -3 61t-6 61q0 31 -5 69.5t-8 66.5l-5 47q-4 22 -15 39l-6 9q-8 9 -8 26q0 7 1.5 17.5t13.5 25t25 19.5t21.5 6.5t18.5 -0.5q6 -1 15 -6
t13 -10q9 -8 14.5 -25t5.5 -29q0 -11 -6 -22q-15 -27 -15 -29l-4 -20q0 -18 -4 -46q-9 -62 -9 -78l-6 -65q0 -13 -2 -25t-4 -29q0 -12 -2.5 -38t-2.5 -31l-5 -98l-3 -85v-22q-2 17 -3 40t-1 45zM578 -85l-6 5l-29 24l-12 14q-15 17 -27 36q-23 36 -24 37q-16 27 -24 49l-3 5
q-9 18 -16 47t-7 50v94l2 9l1 8q5 38 26 75t42 34q22 -23 37 -53.5t15 -59.5l-1 -10l-9 -10q-11 -13 -25 -44q-17 -38 -17 -64q0 -40 5.5 -75t19.5 -78l22 -41l9 -13q6 -10 14.5 -21.5l16.5 -22.5zM706 -84l12 16l19 29t17 30q3 6 9.5 22.5t9.5 26.5l9 42l2 11q0 10 2 32.5
t2 23.5q0 7 -1 18t-4 22l-2 9l-15 37q0 6 -15 26l-16 19q-3 5 0 24t6 25q2 8 4.5 15.5t5.5 11.5l14.5 21.5t13.5 19.5q4 3 9 6h5q2 0 11 -8q3 -2 9 -9q21 -25 28 -44q3 -4 7 -20.5t6 -23.5l7 -47q0 -24 -3 -62t-8 -56q-2 -13 -7.5 -28.5t-14.5 -35.5l-4 -8q-3 -9 -12 -24.5
l-14 -24.5l-37 -50l-10 -11q-6 -8 -12 -13q-1 -1 -14 -11l-18 -14l-5 -3zM215 609l-18 125l-3 66h68l63 -304h-96l-8 57h-27v56h21zM187 734l-15 -125h22v-56h-29l-9 -57h-94l59 304h73v-66h-7zM283 744h55v-248h98v248h55v56h-208v-56zM634 675v69h-18v56h47l66 -43v-80
l-48 -30l48 -28v-123h-95v123h-18v56h18zM597 744v-69h19v-56h-19v-123h-99v304h118v-56h-19zM879 553v191h-20v56h51l67 -43v-217l-63 -44h-55v57h20zM838 744v-191h21v-57h-54l-65 44v217l65 43h54v-56h-21zM1130 496h99l-81 159l73 145h-99l-31 -87l-32 87h-101l78 -145
l-79 -159h97l37 89zM1274 491h4l8 22v-22h6v27h-10l-6 -16l-6 16h-9v-27h6v22zM1244 491h6v22h8v5h-22v-5h8v-22z" />
    <glyph glyph-name="paragraph" unicode="&#xb6;" horiz-adv-x="600" 
d="M412 526h-84v-572h-78v341q-51 0 -84 11q-38 11 -61.5 29t-35.5 43.5t-12 52.5q0 61 51.5 102t170.5 41h264v-48h-51v-572h-80v572z" />
    <glyph glyph-name="periodcentered" unicode="&#xb7;" 
d="M125 397h207v-138h-207v138z" />
    <glyph glyph-name="periodcentered" unicode="&#x2219;" 
d="M125 397h207v-138h-207v138z" />
    <glyph glyph-name="cedilla" unicode="&#xb8;" horiz-adv-x="279" 
d="M139 -67h-18l-33 25v42h62v-22h24l31 -27v-87l-39 -31h-94v47h67v53z" />
    <glyph glyph-name="onesuperior" unicode="&#xb9;" horiz-adv-x="1354" 
d="M754 -192l11 22v-22h6v27h-10l-6 -16l-5 16h-10v-27h6v22zM723 -192h6v22h8v5h-23v-5h9v-22zM636 -115q0 25 -2.5 70t-2.5 56q0 33 -3 61t-6 61q0 31 -5 69.5t-8 66.5l-5 47q-4 22 -15 39l-6 9q-8 9 -8 26q0 7 1.5 17.5t13.5 25t25 19.5t21.5 6.5t18.5 -0.5q6 -1 15 -6
t13 -10q9 -8 14.5 -25t5.5 -29q0 -11 -6 -22q-15 -27 -15 -29l-4 -20q0 -18 -4 -46q-9 -62 -9 -78l-6 -65q0 -13 -2 -25t-4 -29q0 -12 -2.5 -38t-2.5 -31l-5 -98l-3 -85v-22q-2 17 -3 40t-1 45zM578 -85l-6 5l-29 24l-12 14q-15 17 -27 36q-23 36 -24 37q-16 27 -24 49l-3 5
q-9 18 -16 47t-7 50v94l2 9l1 8q5 38 26 75t42 34q22 -23 37 -53.5t15 -59.5l-1 -10l-9 -10q-11 -13 -25 -44q-17 -38 -17 -64q0 -40 5.5 -75t19.5 -78l22 -41l9 -13q6 -10 14.5 -21.5l16.5 -22.5zM706 -84l12 16l19 29t17 30q3 6 9.5 22.5t9.5 26.5l9 42l2 11q0 10 2 32.5
t2 23.5q0 7 -1 18t-4 22l-2 9l-15 37q0 6 -15 26l-16 19q-3 5 0 24t6 25q2 8 4.5 15.5t5.5 11.5l14.5 21.5t13.5 19.5q4 3 9 6h5q2 0 11 -8q3 -2 9 -9q21 -25 28 -44q3 -4 7 -20.5t6 -23.5l7 -47q0 -24 -3 -62t-8 -56q-2 -13 -7.5 -28.5t-14.5 -35.5l-4 -8q-3 -9 -12 -24.5
l-14 -24.5l-37 -50l-10 -11q-6 -8 -12 -13q-1 -1 -14 -11l-18 -14l-5 -3zM215 609l-18 125l-3 66h68l63 -304h-96l-8 57h-27v56h21zM187 734l-15 -125h22v-56h-29l-9 -57h-94l59 304h73v-66h-7zM283 744h55v-248h98v248h55v56h-208v-56zM634 675v69h-18v56h47l66 -43v-80
l-48 -30l48 -28v-123h-95v123h-18v56h18zM597 744v-69h19v-56h-19v-123h-99v304h118v-56h-19zM879 553v191h-20v56h51l67 -43v-217l-63 -44h-55v57h20zM838 744v-191h21v-57h-54l-65 44v217l65 43h54v-56h-21zM1130 496h99l-81 159l73 145h-99l-31 -87l-32 87h-101l78 -145
l-79 -159h97l37 89zM1274 491h4l8 22v-22h6v27h-10l-6 -16l-6 16h-9v-27h6v22zM1244 491h6v22h8v5h-22v-5h8v-22z" />
    <glyph glyph-name="ordmasculine" unicode="&#xba;" horiz-adv-x="725" 
d="M353 -147v24q-1 15 -1.5 25.5t-0.5 13.5v13l-4 146q0 9 -2 14l-2 32q1 8 0 21l-2 25q-1 6 -1 12v10v4l-1 16q0 7 -3 10q-1 13 -1 26q-2 9 -3 14v10l-2 5v11l-2 13l1 8l-22 220l-4 26l-2 24l-3 7l1 4q-2 5 -2 6t-1 3l-2 7l1 4l-1 2l-1 5l-3 3q-3 5 -2 8l-4 5l-1 5
q-4 5 -4 8q-4 4 -7 9q1 3 0 5q-1 0 -1 1q-4 3 -6 4l-1 5l-2 2l-3 5l-2 4l3 1l-3 4l3 2l-3 3l2 2l1 4v7l1 23q-2 7 3 11l11 18l1 3h3l1 4h-1l5 2v4h6q1 6 3 6l2 1q9 15 26 18l9 4l13 4h36q4 -2 12.5 -5.5t13.5 -8.5l6 -2l4 -3l6 -4l12 -15q8 -10 10 -16l2 -6l1 -4l3 -7l1 -4
q-2 -3 -1 -4l1 -3l-1 -4v-2l1 -5l1 -3l-1 -2v-4l3 -1q-1 -2 1 -8v-5v-5l-3 3v-7l-1 -4l-3 -6l-2 -1v-3l-2 2l-3 -4q1 -2 0 -4t-2 -3l-4 -4l-2 -3h-1q-2 -3 -2.5 -5l-1.5 -6l-3 -4q1 -1 -3 -7q1 -1 -1 -6l-1 -4q-2 -4 -1 -5l-2 -5v-6l-1 -3l-2 -7l-18 -188l-10 -100v-5
q-1 -4 -1 -8v-5l-3 -15l1 -1q-1 -11 -3 -13v-11v-4l-1 -9q-2 -6 -3 -11v-23l-4 -33l-2 -19l1 -4q-2 -8 -2 -11q1 -9 1 -14q0 -16 -2 -24v-19q-3 -23 -4 -48t-1 -59l-3 -72l-3 -57v-33q-3 20 -3 40v13zM271 -30l-9 6l-9 6l-45 37l-5 8l-12 14q-11 12 -21.5 25.5t-19.5 28.5
l-24 33l-5 9l-5 10l-4 7l-11 20l-4 7l-8 15l-2 5q-2 6 -4 7l-2 6l-3 6l-2 5q-2 8 -4 9l-2 12q-4 6 -4 8l-6 14q-3 6 -3 11l-1 6l-3 5q-3 7 -3 10l-2 19l-3 13l-3 16v10l-2 10q-1 7 -2 8l-1 4l-1 28v9q-2 6 -2 8l-1 6v6v14v20v10v5v6l1 8q1 7 2 15l1 8q1 5 3 8v7l2 8
q1 5 2 11l1 3l2 4v4v4l1 4l2 6v5l3 7l2 4q2 5 2 9l3 9l4 9l2 2v1l2 7l2 9l12 14l1 1q5 11 10 17q9 10 13 14q6 3 12 11l2 2q5 6 13.5 9t10.5 3l5 -3l2 -3l7 -6q3 -1 5 -5t13 -17l2 -3l6 -8l4 -4l1 -4l3 -4q2 -2 3 -4.5t1 -5.5l3 -1q4 -7 5 -11l1 -4v-4q3 -4 3 -6q4 -5 4 -10
l3 -9l1 -8q0 -5 2 -8q1 -5 1 -7v-4l3 -4l-2 -4l3 -3v-4v-5l2 -14q0 -9 -2 -14l-3 -2l-9 -12q0 -2 -3 -2l-3 -5l-4 -4q-5 -7 -7 -12q-6 -13 -11 -20l-3 -5q0 -3 -3 -6t-3 -5l-4 -9q-3 -6 -3 -9l-4 -6l-1 -8l-2 -3l-2 -8q-2 -4 -3.5 -8t-2.5 -9l-1 -12q0 -5 -1 -9l-3 -8
q-1 -11 -1 -17v-47v-7l1 -5v-14q2 -4 2 -11l2 -15l1 -12v-6q3 -10 5 -15l1 -11l1 -9l6 -22q2 -8 4 -9l1 -10l14 -41q2 -7 8 -16.5t8.5 -15t8.5 -16.5t7 -14l14 -19q13 -21 24 -36l23 -32q-5 2 -6 4zM457 -24l6 8q9 11 12 16.5t7 11.5q12 19 13 21l4 2l27 49l3 7q1 2 5.5 7.5
t6.5 8.5q1 9 8 21q4 10 4 19q3 8 6 17l1 10q0 4 1 5.5t2 2.5l2 9q1 3 1 6.5t1 4.5l3 11l3 15l2 18l3 27l1 9l2 16v6v4v22v11l-2 17l-1 10l-2 10l-1 6l-1 8l-3 13l-3 5l-3 11l-5 10q-2 4 -3 9l-1 6q-2 1 -4 8l-4 6q0 4 -3 9t-3 7l-1 1l-2 1q-8 11 -10 16l-3 5v1q-1 1 -6 8
t-7 7v1l-3 4l-2 2l-2 3l-4 5q-1 4 -2 6l2 9l-2 4q1 4 1 5h1v7v8q1 7 3 11q1 4 0 7l2 7l3 9q-2 3 0 4.5t4 7.5t3 6l-2 4q1 1 3 2h1v3l2 5l1 3l3 6q6 11 8 16v2h1v2l5 3l3 8l-1 -3l3 2l1 4q1 -1 2 -1l2 6v-2l2 2l16 25l14 8h4h4q4 -3 8 -5l4 -3l1 -3l3 -2l10 -9l2 -4h2l2 -4
q4 -6 9 -11l1 -1l1 -2l6 -6q1 -3 6.5 -8.5t6.5 -10.5l2 -3q3 -5 4 -7l-3 1l3 -3l1 -3v-4l3 -1l1 -3q2 -6 5 -11l3 -10q1 -5 3 -9v-6v-1l2 -4v-3q0 -9 3 -12l3 -6v-5l2 -9l1 -4q1 -6 1 -8l1 -8v-2q1 -4 3 -8v-6v-5l2 -4l1 -9v-9v-11v-4v-7v-4v-7v-4v-14l-1 -16q-1 -3 -2 -4
v-11q-1 -1 -1 -7t-2 -10v-11l-1 -7l-1 -15l-1 -12l-2 -7l-1 -10l-2 -9l-3 -9v-6v-1l-2 -6l-3 -9q-3 -5 -3 -11l-3 -11q-3 -5 -3 -8l-3 -9l-3 -7l-5 -13l-7 -17l-7 -12l-8 -18l-9 -18l-9 -16q-5 -10 -8 -12l-6 -10l-23 -36l-6 -6l-26 -34l-15 -16q-9 -10 -21 -21t-18 -17
q-11 -8 -16 -11l-13 -10l-8 -5zM529 -187h6l11 32v-32h10v40h-15l-9 -24l-10 24h-13v-40h8v32zM482 -187h10v32h12v8h-35v-8h13v-32z" />
    <glyph glyph-name="guillemotright" unicode="&#xbb;" horiz-adv-x="420" 
d="M270 294l-51 153l51 23l93 -114v-125l-93 -115l-51 23zM107 292l-50 155l50 23l92 -114v-125l-92 -115l-50 25z" />
    <glyph glyph-name="onequarter" unicode="&#xbc;" horiz-adv-x="4423" 
d="M696 182l-59 408h-10v210h224l201 -984h-310l-24 183h-91v183h69zM606 590l-48 -408h69v-183h-92l-25 -183h-309l194 984h232v-210h-21zM912 617h178v-801h317v801h178v183h-673v-183zM2067 390v227h-68v183h160l211 -141v-263l-158 -95l158 -94v-391h-303v391h-68v183
h68zM1932 617v-227h67v-183h-67v-391h-316v984h383v-183h-67zM2850 -1v618h-60v183h162l214 -141v-703l-204 -140h-172v183h60zM2728 617v-618h62v-183h-172l-206 140v703l209 141h169v-183h-62zM3671 -184h316l-258 514l235 470h-316l-103 -280l-104 280h-321l247 -470
l-255 -514h314l119 287zM4165 -200h13l27 69v-69h17v87h-29l-22 -52l-20 52h-30v-87h17v69zM4064 -200h18v69h29v18h-73v-18h26v-69z" />
    <glyph glyph-name="onehalf" unicode="&#xbd;" horiz-adv-x="725" 
d="M353 -147v24q-1 15 -1.5 25.5t-0.5 13.5v13l-4 146q0 9 -2 14l-2 32q1 8 0 21l-2 25q-1 6 -1 12v10v4l-1 16q0 7 -3 10q-1 13 -1 26q-2 9 -3 14v10l-2 5v11l-2 13l1 8l-22 220l-4 26l-2 24l-3 7l1 4q-2 5 -2 6t-1 3l-2 7l1 4l-1 2l-1 5l-3 3q-3 5 -2 8l-4 5l-1 5
q-4 5 -4 8q-4 4 -7 9q1 3 0 5q-1 0 -1 1q-4 3 -6 4l-1 5l-2 2l-3 5l-2 4l3 1l-3 4l3 2l-3 3l2 2l1 4v7l1 23q-2 7 3 11l11 18l1 3h3l1 4h-1l5 2v4h6q1 6 3 6l2 1q9 15 26 18l9 4l13 4h36q4 -2 12.5 -5.5t13.5 -8.5l6 -2l4 -3l6 -4l12 -15q8 -10 10 -16l2 -6l1 -4l3 -7l1 -4
q-2 -3 -1 -4l1 -3l-1 -4v-2l1 -5l1 -3l-1 -2v-4l3 -1q-1 -2 1 -8v-5v-5l-3 3v-7l-1 -4l-3 -6l-2 -1v-3l-2 2l-3 -4q1 -2 0 -4t-2 -3l-4 -4l-2 -3h-1q-2 -3 -2.5 -5l-1.5 -6l-3 -4q1 -1 -3 -7q1 -1 -1 -6l-1 -4q-2 -4 -1 -5l-2 -5v-6l-1 -3l-2 -7l-18 -188l-10 -100v-5
q-1 -4 -1 -8v-5l-3 -15l1 -1q-1 -11 -3 -13v-11v-4l-1 -9q-2 -6 -3 -11v-23l-4 -33l-2 -19l1 -4q-2 -8 -2 -11q1 -9 1 -14q0 -16 -2 -24v-19q-3 -23 -4 -48t-1 -59l-3 -72l-3 -57v-33q-3 20 -3 40v13zM271 -30l-9 6l-9 6l-45 37l-5 8l-12 14q-11 12 -21.5 25.5t-19.5 28.5
l-24 33l-5 9l-5 10l-4 7l-11 20l-4 7l-8 15l-2 5q-2 6 -4 7l-2 6l-3 6l-2 5q-2 8 -4 9l-2 12q-4 6 -4 8l-6 14q-3 6 -3 11l-1 6l-3 5q-3 7 -3 10l-2 19l-3 13l-3 16v10l-2 10q-1 7 -2 8l-1 4l-1 28v9q-2 6 -2 8l-1 6v6v14v20v10v5v6l1 8q1 7 2 15l1 8q1 5 3 8v7l2 8
q1 5 2 11l1 3l2 4v4v4l1 4l2 6v5l3 7l2 4q2 5 2 9l3 9l4 9l2 2v1l2 7l2 9l12 14l1 1q5 11 10 17q9 10 13 14q6 3 12 11l2 2q5 6 13.5 9t10.5 3l5 -3l2 -3l7 -6q3 -1 5 -5t13 -17l2 -3l6 -8l4 -4l1 -4l3 -4q2 -2 3 -4.5t1 -5.5l3 -1q4 -7 5 -11l1 -4v-4q3 -4 3 -6q4 -5 4 -10
l3 -9l1 -8q0 -5 2 -8q1 -5 1 -7v-4l3 -4l-2 -4l3 -3v-4v-5l2 -14q0 -9 -2 -14l-3 -2l-9 -12q0 -2 -3 -2l-3 -5l-4 -4q-5 -7 -7 -12q-6 -13 -11 -20l-3 -5q0 -3 -3 -6t-3 -5l-4 -9q-3 -6 -3 -9l-4 -6l-1 -8l-2 -3l-2 -8q-2 -4 -3.5 -8t-2.5 -9l-1 -12q0 -5 -1 -9l-3 -8
q-1 -11 -1 -17v-47v-7l1 -5v-14q2 -4 2 -11l2 -15l1 -12v-6q3 -10 5 -15l1 -11l1 -9l6 -22q2 -8 4 -9l1 -10l14 -41q2 -7 8 -16.5t8.5 -15t8.5 -16.5t7 -14l14 -19q13 -21 24 -36l23 -32q-5 2 -6 4zM457 -24l6 8q9 11 12 16.5t7 11.5q12 19 13 21l4 2l27 49l3 7q1 2 5.5 7.5
t6.5 8.5q1 9 8 21q4 10 4 19q3 8 6 17l1 10q0 4 1 5.5t2 2.5l2 9q1 3 1 6.5t1 4.5l3 11l3 15l2 18l3 27l1 9l2 16v6v4v22v11l-2 17l-1 10l-2 10l-1 6l-1 8l-3 13l-3 5l-3 11l-5 10q-2 4 -3 9l-1 6q-2 1 -4 8l-4 6q0 4 -3 9t-3 7l-1 1l-2 1q-8 11 -10 16l-3 5v1q-1 1 -6 8
t-7 7v1l-3 4l-2 2l-2 3l-4 5q-1 4 -2 6l2 9l-2 4q1 4 1 5h1v7v8q1 7 3 11q1 4 0 7l2 7l3 9q-2 3 0 4.5t4 7.5t3 6l-2 4q1 1 3 2h1v3l2 5l1 3l3 6q6 11 8 16v2h1v2l5 3l3 8l-1 -3l3 2l1 4q1 -1 2 -1l2 6v-2l2 2l16 25l14 8h4h4q4 -3 8 -5l4 -3l1 -3l3 -2l10 -9l2 -4h2l2 -4
q4 -6 9 -11l1 -1l1 -2l6 -6q1 -3 6.5 -8.5t6.5 -10.5l2 -3q3 -5 4 -7l-3 1l3 -3l1 -3v-4l3 -1l1 -3q2 -6 5 -11l3 -10q1 -5 3 -9v-6v-1l2 -4v-3q0 -9 3 -12l3 -6v-5l2 -9l1 -4q1 -6 1 -8l1 -8v-2q1 -4 3 -8v-6v-5l2 -4l1 -9v-9v-11v-4v-7v-4v-7v-4v-14l-1 -16q-1 -3 -2 -4
v-11q-1 -1 -1 -7t-2 -10v-11l-1 -7l-1 -15l-1 -12l-2 -7l-1 -10l-2 -9l-3 -9v-6v-1l-2 -6l-3 -9q-3 -5 -3 -11l-3 -11q-3 -5 -3 -8l-3 -9l-3 -7l-5 -13l-7 -17l-7 -12l-8 -18l-9 -18l-9 -16q-5 -10 -8 -12l-6 -10l-23 -36l-6 -6l-26 -34l-15 -16q-9 -10 -21 -21t-18 -17
q-11 -8 -16 -11l-13 -10l-8 -5zM529 -187h6l11 32v-32h10v40h-15l-9 -24l-10 24h-13v-40h8v32zM482 -187h10v32h12v8h-35v-8h13v-32z" />
    <glyph glyph-name="threequarters" unicode="&#xbe;" horiz-adv-x="1354" 
d="M754 -192l11 22v-22h6v27h-10l-6 -16l-5 16h-10v-27h6v22zM723 -192h6v22h8v5h-23v-5h9v-22zM636 -115q0 25 -2.5 70t-2.5 56q0 33 -3 61t-6 61q0 31 -5 69.5t-8 66.5l-5 47q-4 22 -15 39l-6 9q-8 9 -8 26q0 7 1.5 17.5t13.5 25t25 19.5t21.5 6.5t18.5 -0.5q6 -1 15 -6
t13 -10q9 -8 14.5 -25t5.5 -29q0 -11 -6 -22q-15 -27 -15 -29l-4 -20q0 -18 -4 -46q-9 -62 -9 -78l-6 -65q0 -13 -2 -25t-4 -29q0 -12 -2.5 -38t-2.5 -31l-5 -98l-3 -85v-22q-2 17 -3 40t-1 45zM578 -85l-6 5l-29 24l-12 14q-15 17 -27 36q-23 36 -24 37q-16 27 -24 49l-3 5
q-9 18 -16 47t-7 50v94l2 9l1 8q5 38 26 75t42 34q22 -23 37 -53.5t15 -59.5l-1 -10l-9 -10q-11 -13 -25 -44q-17 -38 -17 -64q0 -40 5.5 -75t19.5 -78l22 -41l9 -13q6 -10 14.5 -21.5l16.5 -22.5zM706 -84l12 16l19 29t17 30q3 6 9.5 22.5t9.5 26.5l9 42l2 11q0 10 2 32.5
t2 23.5q0 7 -1 18t-4 22l-2 9l-15 37q0 6 -15 26l-16 19q-3 5 0 24t6 25q2 8 4.5 15.5t5.5 11.5l14.5 21.5t13.5 19.5q4 3 9 6h5q2 0 11 -8q3 -2 9 -9q21 -25 28 -44q3 -4 7 -20.5t6 -23.5l7 -47q0 -24 -3 -62t-8 -56q-2 -13 -7.5 -28.5t-14.5 -35.5l-4 -8q-3 -9 -12 -24.5
l-14 -24.5l-37 -50l-10 -11q-6 -8 -12 -13q-1 -1 -14 -11l-18 -14l-5 -3zM215 609l-18 125l-3 66h68l63 -304h-96l-8 57h-27v56h21zM187 734l-15 -125h22v-56h-29l-9 -57h-94l59 304h73v-66h-7zM283 744h55v-248h98v248h55v56h-208v-56zM634 675v69h-18v56h47l66 -43v-80
l-48 -30l48 -28v-123h-95v123h-18v56h18zM597 744v-69h19v-56h-19v-123h-99v304h118v-56h-19zM879 553v191h-20v56h51l67 -43v-217l-63 -44h-55v57h20zM838 744v-191h21v-57h-54l-65 44v217l65 43h54v-56h-21zM1130 496h99l-81 159l73 145h-99l-31 -87l-32 87h-101l78 -145
l-79 -159h97l37 89zM1274 491h4l8 22v-22h6v27h-10l-6 -16l-6 16h-9v-27h6v22zM1244 491h6v22h8v5h-22v-5h8v-22z" />
    <glyph glyph-name="questiondown" unicode="&#xbf;" horiz-adv-x="500" 
d="M168 331h166v-111h-166v111zM168 170h166v-117l-111 -84v-105h58v105h160v-128l-107 -83h-162l-111 83v143l107 82v104z" />
    <glyph glyph-name="Agrave" unicode="&#xc0;" horiz-adv-x="420" 
d="M199 451l-25 -237h72l-31 237h-16zM258 106h-96l-14 -106h-162l102 575h240l106 -575h-163zM293 605l-180 64l-19 36l39 51l49 -3l144 -107z" />
    <glyph glyph-name="Aacute" unicode="&#xc1;" horiz-adv-x="420" 
d="M199 451l-25 -237h72l-31 237h-16zM258 106h-96l-14 -106h-162l102 575h240l106 -575h-163zM92 644l142 107l49 5l41 -51l-21 -36l-178 -64z" />
    <glyph glyph-name="Acircumflex" unicode="&#xc2;" horiz-adv-x="420" 
d="M199 451l-25 -237h72l-31 237h-16zM258 106h-96l-14 -106h-162l102 575h240l106 -575h-163zM217 664l-156 -39l-28 39l110 74h148l109 -74l-29 -39z" />
    <glyph glyph-name="Atilde" unicode="&#xc3;" horiz-adv-x="420" 
d="M199 451l-25 -237h72l-31 237h-16zM258 106h-96l-14 -106h-162l102 575h240l106 -575h-163zM230 623l-72 44l-72 -41l-43 33l137 77l74 -44l70 42l47 -32z" />
    <glyph glyph-name="Adieresis" unicode="&#xc4;" horiz-adv-x="420" 
d="M199 451l-25 -237h72l-31 237h-16zM258 106h-96l-14 -106h-162l102 575h240l106 -575h-163zM61 731h130v-101h-130v101zM232 731h131v-101h-131v101z" />
    <glyph glyph-name="Aring" unicode="&#xc5;" horiz-adv-x="420" 
d="M199 451l-25 -237h72l-31 237h-16zM258 106h-96l-14 -106h-162l102 575h240l106 -575h-163zM254 711h-82v-64h82v64zM258 751l47 -35v-74l-47 -36h-90l-45 36v74l45 35h90z" />
    <glyph glyph-name="AE" unicode="&#xc6;" horiz-adv-x="600" 
d="M281 466h-13l-75 -252h88v252zM281 108h-117l-31 -108h-162l207 574h402v-108h-142v-110h121v-107h-121v-141h150v-108h-307v108z" />
    <glyph glyph-name="Ccedilla" unicode="&#xc7;" 
d="M178 0h-26l-117 83v407l108 84h179l110 -84v-137h-161v113h-70v-358h70v138h161v-163l-110 -83h-82v-22h24l31 -27v-85l-39 -33h-94v47h67v53h-20l-31 25v42z" />
    <glyph glyph-name="Egrave" unicode="&#xc8;" horiz-adv-x="359" 
d="M39 575h305v-109h-139v-108h115v-108h-115v-142h143v-108h-309v575zM262 605l-180 64l-19 36l39 51l48 -3l145 -107z" />
    <glyph glyph-name="Eacute" unicode="&#xc9;" horiz-adv-x="359" 
d="M39 575h305v-109h-139v-108h115v-108h-115v-142h143v-108h-309v575zM63 644l142 107l49 5l41 -51l-22 -36l-177 -64z" />
    <glyph glyph-name="Ecircumflex" unicode="&#xca;" horiz-adv-x="359" 
d="M39 575h305v-109h-139v-108h115v-108h-115v-142h143v-108h-309v575zM186 664l-157 -39l-27 39l109 74h149l109 -74l-29 -39z" />
    <glyph glyph-name="Edieresis" unicode="&#xcb;" horiz-adv-x="359" 
d="M39 575h305v-109h-139v-108h115v-108h-115v-142h143v-108h-309v575zM31 731h131v-101h-131v101zM203 731h131v-101h-131v101z" />
    <glyph glyph-name="Igrave" unicode="&#xcc;" horiz-adv-x="260" 
d="M47 574h166v-574h-166v574zM211 605l-180 64l-19 36l39 51l49 -3l144 -107z" />
    <glyph glyph-name="Iacute" unicode="&#xcd;" horiz-adv-x="260" 
d="M47 574h166v-574h-166v574zM12 646l142 107l49 5l41 -52l-21 -36l-178 -64z" />
    <glyph glyph-name="Icircumflex" unicode="&#xce;" horiz-adv-x="260" 
d="M47 574h166v-574h-166v574zM137 664l-157 -39l-27 39l110 74h148l109 -74l-29 -39z" />
    <glyph glyph-name="Idieresis" unicode="&#xcf;" horiz-adv-x="260" 
d="M47 574h166v-574h-166v574zM-18 731h131v-101h-131v101zM154 731h131v-101h-131v101z" />
    <glyph glyph-name="Eth" unicode="&#xd0;" horiz-adv-x="465" 
d="M45 341v233h285l113 -84v-407l-107 -83h-291v233h-45v108h45zM209 466v-125h31v-108h-31v-125h68v358h-68z" />
    <glyph glyph-name="Ntilde" unicode="&#xd1;" horiz-adv-x="480" 
d="M195 280v-280h-156v574h139l109 -276v276h154v-574h-136zM260 623l-72 44l-73 -41l-43 33l137 77l74 -44l71 42l46 -32z" />
    <glyph glyph-name="Ograve" unicode="&#xd2;" horiz-adv-x="480" 
d="M207 466v-358h68v358h-68zM150 574h178l111 -84v-407l-105 -83h-184l-109 83v407zM322 605l-179 64l-20 36l39 51l49 -3l144 -107z" />
    <glyph glyph-name="Oacute" unicode="&#xd3;" horiz-adv-x="480" 
d="M207 466v-358h68v358h-68zM150 574h178l111 -84v-407l-105 -83h-184l-109 83v407zM121 644l143 107l49 5l41 -51l-22 -36l-178 -64z" />
    <glyph glyph-name="Ocircumflex" unicode="&#xd4;" horiz-adv-x="480" 
d="M207 466v-358h68v358h-68zM150 574h178l111 -84v-407l-105 -83h-184l-109 83v407zM248 664l-156 -39l-28 39l110 74h148l110 -74l-30 -39z" />
    <glyph glyph-name="Otilde" unicode="&#xd5;" horiz-adv-x="480" 
d="M207 466v-358h68v358h-68zM150 574h178l111 -84v-407l-105 -83h-184l-109 83v407zM260 623l-72 44l-73 -41l-43 33l137 77l74 -44l71 42l46 -32z" />
    <glyph glyph-name="Odieresis" unicode="&#xd6;" horiz-adv-x="480" 
d="M207 466v-358h68v358h-68zM150 574h178l111 -84v-407l-105 -83h-184l-109 83v407zM92 731h131v-101h-131v101zM264 731h131v-101h-131v101z" />
    <glyph glyph-name="multiply" unicode="&#xd7;" horiz-adv-x="1354" 
d="M754 -192l11 22v-22h6v27h-10l-6 -16l-5 16h-10v-27h6v22zM723 -192h6v22h8v5h-23v-5h9v-22zM636 -115q0 25 -2.5 70t-2.5 56q0 33 -3 61t-6 61q0 31 -5 69.5t-8 66.5l-5 47q-4 22 -15 39l-6 9q-8 9 -8 26q0 7 1.5 17.5t13.5 25t25 19.5t21.5 6.5t18.5 -0.5q6 -1 15 -6
t13 -10q9 -8 14.5 -25t5.5 -29q0 -11 -6 -22q-15 -27 -15 -29l-4 -20q0 -18 -4 -46q-9 -62 -9 -78l-6 -65q0 -13 -2 -25t-4 -29q0 -12 -2.5 -38t-2.5 -31l-5 -98l-3 -85v-22q-2 17 -3 40t-1 45zM578 -85l-6 5l-29 24l-12 14q-15 17 -27 36q-23 36 -24 37q-16 27 -24 49l-3 5
q-9 18 -16 47t-7 50v94l2 9l1 8q5 38 26 75t42 34q22 -23 37 -53.5t15 -59.5l-1 -10l-9 -10q-11 -13 -25 -44q-17 -38 -17 -64q0 -40 5.5 -75t19.5 -78l22 -41l9 -13q6 -10 14.5 -21.5l16.5 -22.5zM706 -84l12 16l19 29t17 30q3 6 9.5 22.5t9.5 26.5l9 42l2 11q0 10 2 32.5
t2 23.5q0 7 -1 18t-4 22l-2 9l-15 37q0 6 -15 26l-16 19q-3 5 0 24t6 25q2 8 4.5 15.5t5.5 11.5l14.5 21.5t13.5 19.5q4 3 9 6h5q2 0 11 -8q3 -2 9 -9q21 -25 28 -44q3 -4 7 -20.5t6 -23.5l7 -47q0 -24 -3 -62t-8 -56q-2 -13 -7.5 -28.5t-14.5 -35.5l-4 -8q-3 -9 -12 -24.5
l-14 -24.5l-37 -50l-10 -11q-6 -8 -12 -13q-1 -1 -14 -11l-18 -14l-5 -3zM215 609l-18 125l-3 66h68l63 -304h-96l-8 57h-27v56h21zM187 734l-15 -125h22v-56h-29l-9 -57h-94l59 304h73v-66h-7zM283 744h55v-248h98v248h55v56h-208v-56zM634 675v69h-18v56h47l66 -43v-80
l-48 -30l48 -28v-123h-95v123h-18v56h18zM597 744v-69h19v-56h-19v-123h-99v304h118v-56h-19zM879 553v191h-20v56h51l67 -43v-217l-63 -44h-55v57h20zM838 744v-191h21v-57h-54l-65 44v217l65 43h54v-56h-21zM1130 496h99l-81 159l73 145h-99l-31 -87l-32 87h-101l78 -145
l-79 -159h97l37 89zM1274 491h4l8 22v-22h6v27h-10l-6 -16l-6 16h-9v-27h6v22zM1244 491h6v22h8v5h-22v-5h8v-22z" />
    <glyph glyph-name="Oslash" unicode="&#xd8;" horiz-adv-x="500" 
d="M293 466h-70v-189l70 123v66zM293 108v212l-70 -122v-90h70zM389 542l62 97l41 -17l-68 -106l35 -26v-407l-107 -83h-188l-49 38l-70 -108l-39 17l74 117l-23 19v407l109 85h184z" />
    <glyph glyph-name="Ugrave" unicode="&#xd9;" horiz-adv-x="480" 
d="M275 108v466h166v-491l-107 -83h-186l-109 83v491h166v-466h70zM322 605l-179 64l-20 36l39 51l49 -3l144 -107z" />
    <glyph glyph-name="Uacute" unicode="&#xda;" horiz-adv-x="480" 
d="M275 108v466h166v-491l-107 -83h-186l-109 83v491h166v-466h70zM123 646l143 107l48 5l41 -52l-21 -36l-178 -64z" />
    <glyph glyph-name="Ucircumflex" unicode="&#xdb;" horiz-adv-x="480" 
d="M275 108v466h166v-491l-107 -83h-186l-109 83v491h166v-466h70zM246 664l-156 -39l-27 39l109 74h148l110 -74l-30 -39z" />
    <glyph glyph-name="Udieresis" unicode="&#xdc;" horiz-adv-x="480" 
d="M275 108v466h166v-491l-107 -83h-186l-109 83v491h166v-466h70zM90 731h131v-101h-131v101zM262 731h131v-101h-131v101z" />
    <glyph glyph-name="Yacute" unicode="&#xdd;" horiz-adv-x="473" 
d="M281 574h164l-142 -333v-241h-166v241l-143 333h166l61 -207zM102 646l142 107l49 5l41 -52l-21 -36l-178 -64z" />
    <glyph glyph-name="Thorn" unicode="&#xde;" horiz-adv-x="453" 
d="M49 0v574h164v-88h107l112 -83v-216l-112 -79h-107v-108h-164zM273 378h-60v-162h60v162z" />
    <glyph glyph-name="germandbls" unicode="&#xdf;" horiz-adv-x="924" 
d="M266 466h-69v-117l119 -8l114 -83v-175l-108 -83h-183l-108 83v101h166v-76h69v120l-120 8l-115 82v172l110 84h173l112 -84v-101h-160v77zM717 466h-69v-117l120 -8l113 -83v-175l-108 -83h-183l-108 83v101h166v-76h69v120l-119 8l-116 82v172l110 84h174l111 -84v-101
h-160v77z" />
    <glyph glyph-name="agrave" unicode="&#xe0;" horiz-adv-x="469" 
d="M199 451l-25 -237h72l-31 237h-16zM258 106h-96l-14 -106h-162l102 575h240l106 -575h-163zM293 605l-180 64l-19 36l39 51l49 -3l144 -107z" />
    <glyph glyph-name="aacute" unicode="&#xe1;" horiz-adv-x="469" 
d="M199 451l-25 -237h72l-31 237h-16zM258 106h-96l-14 -106h-162l102 575h240l106 -575h-163zM92 644l142 107l49 5l41 -51l-21 -36l-178 -64z" />
    <glyph glyph-name="acircumflex" unicode="&#xe2;" horiz-adv-x="496" 
d="M199 451l-25 -237h72l-31 237h-16zM258 106h-96l-14 -106h-162l102 575h240l106 -575h-163zM217 664l-156 -39l-28 39l110 74h148l109 -74l-29 -39z" />
    <glyph glyph-name="atilde" unicode="&#xe3;" horiz-adv-x="484" 
d="M199 451l-25 -237h72l-31 237h-16zM258 106h-96l-14 -106h-162l102 575h240l106 -575h-163zM230 623l-72 44l-72 -41l-43 33l137 77l74 -44l70 42l47 -32z" />
    <glyph glyph-name="adieresis" unicode="&#xe4;" horiz-adv-x="469" 
d="M199 451l-25 -237h72l-31 237h-16zM258 106h-96l-14 -106h-162l102 575h240l106 -575h-163zM61 731h130v-101h-130v101zM232 731h131v-101h-131v101z" />
    <glyph glyph-name="aring" unicode="&#xe5;" horiz-adv-x="469" 
d="M199 451l-25 -237h72l-31 237h-16zM258 106h-96l-14 -106h-162l102 575h240l106 -575h-163zM254 711h-82v-64h82v64zM258 751l47 -35v-74l-47 -36h-90l-45 36v74l45 35h90z" />
    <glyph glyph-name="ae" unicode="&#xe6;" horiz-adv-x="646" 
d="M281 466h-13l-75 -252h88v252zM281 108h-117l-31 -108h-162l207 574h402v-108h-142v-110h121v-107h-121v-141h150v-108h-307v108z" />
    <glyph glyph-name="ccedilla" unicode="&#xe7;" horiz-adv-x="453" 
d="M178 0h-26l-117 83v407l108 84h179l110 -84v-137h-161v113h-70v-358h70v138h161v-163l-110 -83h-82v-22h24l31 -27v-85l-39 -33h-94v47h67v53h-20l-31 25v42z" />
    <glyph glyph-name="egrave" unicode="&#xe8;" horiz-adv-x="375" 
d="M39 575h305v-109h-139v-108h115v-108h-115v-142h143v-108h-309v575zM262 605l-180 64l-19 36l39 51l48 -3l145 -107z" />
    <glyph glyph-name="eacute" unicode="&#xe9;" horiz-adv-x="375" 
d="M39 575h305v-109h-139v-108h115v-108h-115v-142h143v-108h-309v575zM63 644l142 107l49 5l41 -51l-22 -36l-177 -64z" />
    <glyph glyph-name="ecircumflex" unicode="&#xea;" 
d="M39 575h305v-109h-139v-108h115v-108h-115v-142h143v-108h-309v575zM186 664l-157 -39l-27 39l109 74h149l109 -74l-29 -39z" />
    <glyph glyph-name="edieresis" unicode="&#xeb;" horiz-adv-x="406" 
d="M39 575h305v-109h-139v-108h115v-108h-115v-142h143v-108h-309v575zM31 731h131v-101h-131v101zM203 731h131v-101h-131v101z" />
    <glyph glyph-name="igrave" unicode="&#xec;" horiz-adv-x="318" 
d="M47 574h166v-574h-166v574zM211 605l-180 64l-19 36l39 51l49 -3l144 -107z" />
    <glyph glyph-name="iacute" unicode="&#xed;" horiz-adv-x="318" 
d="M47 574h166v-574h-166v574zM12 646l142 107l49 5l41 -52l-21 -36l-178 -64z" />
    <glyph glyph-name="icircumflex" unicode="&#xee;" 
d="M47 574h166v-574h-166v574zM137 664l-157 -39l-27 39l110 74h148l109 -74l-29 -39z" />
    <glyph glyph-name="idieresis" unicode="&#xef;" horiz-adv-x="393" 
d="M47 574h166v-574h-166v574zM-18 731h131v-101h-131v101zM154 731h131v-101h-131v101z" />
    <glyph glyph-name="eth" unicode="&#xf0;" horiz-adv-x="465" 
d="M45 341v233h285l113 -84v-407l-107 -83h-291v233h-45v108h45zM209 466v-125h31v-108h-31v-125h68v358h-68z" />
    <glyph glyph-name="ntilde" unicode="&#xf1;" horiz-adv-x="463" 
d="M195 280v-280h-156v574h139l109 -276v276h154v-574h-136zM260 623l-72 44l-73 -41l-43 33l137 77l74 -44l71 42l46 -32z" />
    <glyph glyph-name="ograve" unicode="&#xf2;" 
d="M207 466v-358h68v358h-68zM150 574h178l111 -84v-407l-105 -83h-184l-109 83v407zM322 605l-179 64l-20 36l39 51l49 -3l144 -107z" />
    <glyph glyph-name="oacute" unicode="&#xf3;" 
d="M207 466v-358h68v358h-68zM150 574h178l111 -84v-407l-105 -83h-184l-109 83v407zM121 644l143 107l49 5l41 -51l-22 -36l-178 -64z" />
    <glyph glyph-name="ocircumflex" unicode="&#xf4;" horiz-adv-x="469" 
d="M207 466v-358h68v358h-68zM150 574h178l111 -84v-407l-105 -83h-184l-109 83v407zM248 664l-156 -39l-28 39l110 74h148l110 -74l-30 -39z" />
    <glyph glyph-name="otilde" unicode="&#xf5;" 
d="M207 466v-358h68v358h-68zM150 574h178l111 -84v-407l-105 -83h-184l-109 83v407zM260 623l-72 44l-73 -41l-43 33l137 77l74 -44l71 42l46 -32z" />
    <glyph glyph-name="odieresis" unicode="&#xf6;" 
d="M207 466v-358h68v358h-68zM150 574h178l111 -84v-407l-105 -83h-184l-109 83v407zM92 731h131v-101h-131v101zM264 731h131v-101h-131v101z" />
    <glyph glyph-name="divide" unicode="&#xf7;" horiz-adv-x="1354" 
d="M754 -192l11 22v-22h6v27h-10l-6 -16l-5 16h-10v-27h6v22zM723 -192h6v22h8v5h-23v-5h9v-22zM636 -115q0 25 -2.5 70t-2.5 56q0 33 -3 61t-6 61q0 31 -5 69.5t-8 66.5l-5 47q-4 22 -15 39l-6 9q-8 9 -8 26q0 7 1.5 17.5t13.5 25t25 19.5t21.5 6.5t18.5 -0.5q6 -1 15 -6
t13 -10q9 -8 14.5 -25t5.5 -29q0 -11 -6 -22q-15 -27 -15 -29l-4 -20q0 -18 -4 -46q-9 -62 -9 -78l-6 -65q0 -13 -2 -25t-4 -29q0 -12 -2.5 -38t-2.5 -31l-5 -98l-3 -85v-22q-2 17 -3 40t-1 45zM578 -85l-6 5l-29 24l-12 14q-15 17 -27 36q-23 36 -24 37q-16 27 -24 49l-3 5
q-9 18 -16 47t-7 50v94l2 9l1 8q5 38 26 75t42 34q22 -23 37 -53.5t15 -59.5l-1 -10l-9 -10q-11 -13 -25 -44q-17 -38 -17 -64q0 -40 5.5 -75t19.5 -78l22 -41l9 -13q6 -10 14.5 -21.5l16.5 -22.5zM706 -84l12 16l19 29t17 30q3 6 9.5 22.5t9.5 26.5l9 42l2 11q0 10 2 32.5
t2 23.5q0 7 -1 18t-4 22l-2 9l-15 37q0 6 -15 26l-16 19q-3 5 0 24t6 25q2 8 4.5 15.5t5.5 11.5l14.5 21.5t13.5 19.5q4 3 9 6h5q2 0 11 -8q3 -2 9 -9q21 -25 28 -44q3 -4 7 -20.5t6 -23.5l7 -47q0 -24 -3 -62t-8 -56q-2 -13 -7.5 -28.5t-14.5 -35.5l-4 -8q-3 -9 -12 -24.5
l-14 -24.5l-37 -50l-10 -11q-6 -8 -12 -13q-1 -1 -14 -11l-18 -14l-5 -3zM215 609l-18 125l-3 66h68l63 -304h-96l-8 57h-27v56h21zM187 734l-15 -125h22v-56h-29l-9 -57h-94l59 304h73v-66h-7zM283 744h55v-248h98v248h55v56h-208v-56zM634 675v69h-18v56h47l66 -43v-80
l-48 -30l48 -28v-123h-95v123h-18v56h18zM597 744v-69h19v-56h-19v-123h-99v304h118v-56h-19zM879 553v191h-20v56h51l67 -43v-217l-63 -44h-55v57h20zM838 744v-191h21v-57h-54l-65 44v217l65 43h54v-56h-21zM1130 496h99l-81 159l73 145h-99l-31 -87l-32 87h-101l78 -145
l-79 -159h97l37 89zM1274 491h4l8 22v-22h6v27h-10l-6 -16l-6 16h-9v-27h6v22zM1244 491h6v22h8v5h-22v-5h8v-22z" />
    <glyph glyph-name="oslash" unicode="&#xf8;" horiz-adv-x="516" 
d="M293 466h-70v-189l70 123v66zM293 108v212l-70 -122v-90h70zM389 542l62 97l41 -17l-68 -106l35 -26v-407l-107 -83h-188l-49 38l-70 -108l-39 17l74 117l-23 19v407l109 85h184z" />
    <glyph glyph-name="ugrave" unicode="&#xf9;" horiz-adv-x="463" 
d="M275 108v466h166v-491l-107 -83h-186l-109 83v491h166v-466h70zM322 605l-179 64l-20 36l39 51l49 -3l144 -107z" />
    <glyph glyph-name="uacute" unicode="&#xfa;" horiz-adv-x="463" 
d="M275 108v466h166v-491l-107 -83h-186l-109 83v491h166v-466h70zM123 646l143 107l48 5l41 -52l-21 -36l-178 -64z" />
    <glyph glyph-name="ucircumflex" unicode="&#xfb;" horiz-adv-x="473" 
d="M275 108v466h166v-491l-107 -83h-186l-109 83v491h166v-466h70zM246 664l-156 -39l-27 39l109 74h148l110 -74l-30 -39z" />
    <glyph glyph-name="udieresis" unicode="&#xfc;" horiz-adv-x="463" 
d="M275 108v466h166v-491l-107 -83h-186l-109 83v491h166v-466h70zM90 731h131v-101h-131v101zM262 731h131v-101h-131v101z" />
    <glyph glyph-name="yacute" unicode="&#xfd;" horiz-adv-x="473" 
d="M281 574h164l-142 -333v-241h-166v241l-143 333h166l61 -207zM102 646l142 107l49 5l41 -52l-21 -36l-178 -64z" />
    <glyph glyph-name="thorn" unicode="&#xfe;" horiz-adv-x="453" 
d="M49 0v574h164v-88h107l112 -83v-216l-112 -79h-107v-108h-164zM273 378h-60v-162h60v162z" />
    <glyph glyph-name="ydieresis" unicode="&#xff;" horiz-adv-x="473" 
d="M281 574h164l-142 -333v-241h-166v241l-143 333h166l61 -207zM78 730h131v-102h-131v102zM250 730h131v-102h-131v102z" />
    <glyph glyph-name="breve" unicode="&#x2d8;" horiz-adv-x="480" 
d="M316 683v56h84v-62l-62 -57h-203l-63 57v62h84v-56h160z" />
    <glyph glyph-name="ring" unicode="&#x2da;" horiz-adv-x="320" 
d="M203 711h-82v-64h82v64zM207 751l47 -35v-74l-47 -36h-90l-45 36v74l45 35h90z" />
  </font>
</defs>
</svg>
